<svg width="36" height="36" viewBox="0 0 36 36" fill="none" xmlns="http://www.w3.org/2000/svg">
<circle cx="18" cy="18" r="18" fill="#333368"/>
<path d="M11.6134 18.4755C11.5226 18.3317 11.4772 18.2598 11.4518 18.149C11.4327 18.0657 11.4327 17.9343 11.4518 17.8511C11.4772 17.7402 11.5226 17.6683 11.6134 17.5246C12.3637 16.3366 14.5969 13.3333 18.0003 13.3333C21.4036 13.3333 23.6369 16.3366 24.3871 17.5246C24.4779 17.6683 24.5233 17.7402 24.5487 17.8511C24.5678 17.9343 24.5678 18.0657 24.5487 18.149C24.5233 18.2598 24.4779 18.3317 24.3871 18.4755C23.6369 19.6634 21.4036 22.6667 18.0003 22.6667C14.5969 22.6667 12.3637 19.6635 11.6134 18.4755Z" stroke="#F0F0F6" stroke-width="1.5" stroke-linejoin="round"/>
<path d="M18.0003 20C19.1048 20 20.0003 19.1046 20.0003 18C20.0003 16.8954 19.1048 16 18.0003 16C16.8957 16 16.0003 16.8954 16.0003 18C16.0003 19.1046 16.8957 20 18.0003 20Z" stroke="#F0F0F6" stroke-width="1.5" stroke-linejoin="round"/>
</svg>
