<svg width="236" height="72" viewBox="0 0 236 72" fill="none" xmlns="http://www.w3.org/2000/svg">
<rect width="236" height="72" rx="8" fill="#000042"/>
<path fill-rule="evenodd" clip-rule="evenodd" d="M38.6639 17.0008L37 17.0008V36.5735H40.2281L40.2281 18.5746C40.2334 18.3657 40.1966 18.1579 40.1198 17.9639C40.043 17.77 39.9278 17.5939 39.7814 17.4466C39.635 17.2992 39.4603 17.1837 39.2682 17.107C39.076 17.0303 38.8704 16.9942 38.6639 17.0008ZM41.678 29.8184C41.678 25.8432 44.5399 22.662 48.7775 22.662C53.101 22.662 55.8492 26.0115 55.4444 30.8395H44.906C45.2555 32.5984 46.5617 34.046 48.8607 34.046C50.4886 34.046 51.7587 33.3362 52.3133 32.0318L55.2613 32.9968C54.2213 35.4655 51.8835 37 48.8329 37C44.3153 37 41.678 33.5915 41.678 29.8184ZM48.7775 25.616C46.7003 25.616 45.4108 26.8643 44.9615 28.483H52.2856C52.0055 26.9205 50.7992 25.616 48.7775 25.616ZM59.9185 24.8501C60.7338 23.3998 62.248 22.662 64.1588 22.662C67.6364 22.662 69.4057 25.0465 69.4057 28.0566V36.5736H66.1777V29.0497C66.1777 27.1196 65.4206 25.616 63.3434 25.616C61.1276 25.616 60.2568 27.1196 60.2568 29.0497V36.5736H57.0288V23.0884H59.7521L59.9185 24.8501ZM92.6426 23.0892H96.5446L91.3863 28.439L96.7165 36.5744H92.9837L89.1955 30.6973L87.343 32.6274V36.5744L84.1149 36.5744V17.0606L85.8648 17.0606C86.2571 17.0735 86.6294 17.2386 86.9046 17.5217C87.1798 17.8048 87.3368 18.1841 87.343 18.5811V28.6185L92.6426 23.0892ZM114.729 25.1338L114.532 23.0887H111.812V36.5739H115.037V30.0459C115.037 27.3472 116.021 26.183 118.293 26.183H118.847V22.8334C116.806 22.8334 115.375 23.6582 114.729 25.1338ZM102.465 22.662C104.459 22.662 106.001 23.3998 106.955 24.9343L107.13 23.0884H109.85V36.5736H106.625V35.2102C105.663 36.4025 104.259 37 102.465 37C98.4744 37 95.7011 34.1077 95.7011 29.8184C95.7011 25.529 98.5077 22.662 102.465 22.662ZM98.9569 29.8184C98.9569 32.3432 100.585 34.046 102.942 34.046C105.158 34.046 106.825 32.3432 106.825 29.8184C106.825 27.2936 105.161 25.6104 102.942 25.6104C100.585 25.6104 98.9569 27.2936 98.9569 29.8184ZM78.8079 28.5962L76.312 28.2006C74.8255 27.9453 74.2348 27.6031 74.2348 26.8653C74.2348 26.1275 74.9087 25.4626 76.4257 25.4626C78.3891 25.4626 79.4291 26.4277 79.9893 27.5077L82.2911 25.7179C81.3648 24.0712 79.6815 22.6517 76.8167 22.6517C73.3391 22.6517 71.1759 24.4415 71.1759 26.9691C71.1759 29.0675 72.4128 30.5178 75.1056 30.9134L77.5489 31.2837C79.3432 31.5642 79.5955 32.1253 79.5955 32.7593C79.5955 33.5532 78.7275 34.1788 77.3519 34.1788C76.4712 34.202 75.6013 33.9785 74.8384 33.533C74.0754 33.0874 73.449 32.4371 73.0285 31.654L70.4743 33.4718C71.9053 35.9125 74.2931 36.9925 77.1301 36.9925C80.7769 36.9925 82.7154 34.9474 82.7154 32.4226C82.7099 30.4701 81.6699 29.0506 78.8079 28.5962ZM127 23.0893V25.9844H123.353V31.5782C123.353 32.9135 124.083 33.5924 125.317 33.5924H127V36.5857H125.261C121.445 36.5857 120.125 34.6837 120.125 31.163V18.8195L123.353 18.8195V23.0893H127Z" fill="#E0C67C"/>
<path d="M158.042 35.9992C156.823 36.0153 155.615 35.789 154.495 35.3351C153.374 34.8811 152.366 34.2095 151.535 33.3634C149.805 31.6525 148.839 29.3724 148.839 27.0003C148.839 24.6282 149.805 22.3481 151.535 20.6372C152.376 19.8038 153.387 19.1406 154.505 18.6876C155.624 18.2345 156.827 18.001 158.043 18.001C159.259 18.001 160.462 18.2345 161.581 18.6876C162.699 19.1406 163.709 19.8038 164.551 20.6372C166.281 22.3481 167.247 24.6282 167.247 27.0003C167.247 29.3724 166.281 31.6525 164.551 33.3634C163.719 34.2093 162.711 34.8808 161.59 35.3347C160.469 35.7886 159.26 36.015 158.042 35.9992ZM158.042 34.7125C159.086 34.7272 160.123 34.5341 161.084 34.1456C162.046 33.7571 162.911 33.1819 163.624 32.457C165.104 30.9881 165.93 29.0334 165.93 27.0003C165.93 24.9672 165.104 23.0125 163.624 21.5436C162.902 20.8297 162.035 20.2616 161.076 19.8736C160.117 19.4856 159.085 19.2855 158.043 19.2855C157 19.2855 155.969 19.4856 155.01 19.8736C154.051 20.2616 153.184 20.8297 152.462 21.5436C150.98 23.0116 150.152 24.9666 150.152 27.0003C150.152 29.034 150.98 30.989 152.462 32.457C153.175 33.1819 154.039 33.757 155 34.1455C155.961 34.534 156.997 34.7271 158.042 34.7125Z" fill="#E0C67C"/>
<path d="M140.205 19.2849L145.462 19.2849L145.462 18.0008L140.202 18.0008C138.984 17.9848 137.776 18.211 136.656 18.6649C135.535 19.1189 134.527 19.7905 133.696 20.6367C131.966 22.3475 131 24.6277 131 26.9997C131 29.3718 131.966 31.6519 133.696 33.3628C134.527 34.2089 135.535 34.8805 136.656 35.3345C137.776 35.7884 138.984 36.0147 140.202 35.9986L145.462 35.9986L145.462 26.484L139.155 26.484L140.208 27.7681L144.156 27.7681L144.156 34.7094L140.211 34.7094C139.166 34.7239 138.13 34.5308 137.169 34.1423C136.208 33.7539 135.344 33.1787 134.631 32.4538C133.149 30.9858 132.322 29.0308 132.322 26.9971C132.322 24.9634 133.149 23.0084 134.631 21.5405C135.343 20.8163 136.207 20.2416 137.167 19.8532C138.127 19.4647 139.162 19.2712 140.205 19.2849Z" fill="#E0C67C"/>
<path d="M181.334 34.7148L172.134 34.7148L172.134 18.001L170.818 18.001L170.818 35.9988L180.278 35.9988L181.334 34.7148Z" fill="#E0C67C"/>
<path d="M189.798 18.0008C191.016 17.9848 192.224 18.211 193.344 18.6649C194.465 19.1189 195.473 19.7905 196.304 20.6367C198.034 22.3475 199 24.6277 199 26.9997C199 29.3718 198.034 31.6519 196.304 33.3628C195.473 34.2089 194.465 34.8805 193.344 35.3345C192.224 35.7884 191.016 36.0147 189.798 35.9986L184.538 35.9986L184.538 18.0008L189.798 18.0008ZM189.798 34.712C190.842 34.7265 191.878 34.5334 192.839 34.1449C193.8 33.7565 194.665 33.1813 195.378 32.4564C196.859 30.9884 197.687 29.0334 197.687 26.9997C197.687 24.966 196.859 23.011 195.378 21.5431C194.665 20.8178 193.8 20.2422 192.839 19.8533C191.878 19.4644 190.842 19.2708 189.798 19.2849L185.852 19.2849L185.852 34.712L189.798 34.712Z" fill="#E0C67C"/>
<path d="M64.355 60H65.336V54.816H65.363C66.119 56.625 66.893 58.326 67.667 60H68.441C69.215 58.326 69.989 56.625 70.745 54.816H70.781V60H71.762V52.98H70.565C69.737 54.825 68.9 56.67 68.063 58.551H68.045C67.235 56.67 66.398 54.825 65.543 52.98H64.355V60ZM78.3205 60H82.9015V59.091H79.2835C79.2835 58.353 79.2835 57.615 79.2835 56.877H82.6315V55.95H79.2835C79.2835 55.257 79.2835 54.564 79.2835 53.871H82.8115V52.98H78.3205V60ZM89.0691 60H90.0501V54.816H90.0771C90.8331 56.625 91.6071 58.326 92.3811 60H93.1551C93.9291 58.326 94.7031 56.625 95.4591 54.816H95.4951V60H96.4761V52.98H95.2791C94.4511 54.825 93.6141 56.67 92.7771 58.551H92.7591C91.9491 56.67 91.1121 54.825 90.2571 52.98H89.0691V60ZM103.035 60H105.897C107.022 60 108.174 59.379 108.174 58.101C108.174 57.237 107.652 56.598 106.743 56.427V56.409C107.562 56.175 107.94 55.473 107.94 54.807C107.94 53.808 107.157 52.98 105.744 52.98H103.035V60ZM103.998 59.109C103.998 58.371 103.998 57.624 103.998 56.886H105.645C106.437 56.886 107.148 57.273 107.148 58.02C107.148 58.74 106.464 59.109 105.663 59.109H103.998ZM103.998 56.04C103.998 55.32 103.998 54.591 103.998 53.871H105.465C106.23 53.871 106.923 54.231 106.923 54.969C106.923 55.671 106.302 56.04 105.492 56.04H103.998ZM114.311 60H118.892V59.091H115.274C115.274 58.353 115.274 57.615 115.274 56.877H118.622V55.95H115.274C115.274 55.257 115.274 54.564 115.274 53.871H118.802V52.98H114.311V60ZM125.059 60H126.022C126.022 59.109 126.022 58.227 126.022 57.336H127.255L129.028 60H130.117C129.514 59.091 128.902 58.182 128.29 57.273V57.264C129.226 57.12 130 56.409 130 55.149C130 53.466 128.524 52.98 127.633 52.98H125.059V60ZM126.022 56.481C126.022 55.563 126.022 54.771 126.022 53.862H127.462C128.236 53.862 128.983 54.267 128.983 55.176C128.983 56.103 128.272 56.481 127.489 56.481H126.022ZM138.337 60.153C139.75 60.153 140.812 59.271 140.812 58.011C140.812 56.706 139.678 56.391 138.958 56.157L138.247 55.932C137.752 55.77 136.888 55.482 136.888 54.726C136.888 54.123 137.437 53.718 138.175 53.718C138.949 53.718 139.48 54.168 139.714 54.852L140.596 54.492C140.326 53.52 139.426 52.836 138.22 52.836C136.987 52.836 135.871 53.538 135.871 54.798C135.871 56.121 137.086 56.571 137.779 56.787L138.427 56.985C139.066 57.183 139.768 57.372 139.768 58.137C139.768 58.92 139.039 59.262 138.328 59.262C137.554 59.262 136.816 58.83 136.528 57.768L135.628 58.083C136.006 59.532 137.14 60.153 138.337 60.153ZM146.891 60H147.854V56.958C149.069 56.958 150.293 56.958 151.508 56.958V60H152.471V52.98H151.508V56.031C150.293 56.031 149.069 56.031 147.854 56.031V52.98H146.891V60ZM159.037 60H160V52.98H159.037V60ZM166.569 60H167.532C167.532 58.974 167.532 58.38 167.532 57.363H169.233C170.052 57.363 171.51 56.859 171.51 55.131C171.51 53.466 170.088 52.98 169.143 52.98H166.569V60ZM167.532 56.436C167.532 55.743 167.532 54.906 167.532 53.871H168.972C169.746 53.871 170.493 54.231 170.493 55.149C170.493 56.085 169.782 56.436 168.999 56.436H167.532Z" fill="#E0C67C"/>
</svg>
