<svg width="16" height="16" viewBox="0 0 16 16" fill="none" xmlns="http://www.w3.org/2000/svg">
<path d="M5.54237 5.33333C5.54237 5.33333 8.58975 5.33333 10.5424 5.33333M5.54237 8C5.54237 8 8.58975 8 10.5424 8M13.3337 14V5.2C13.3337 4.0799 13.3337 3.51984 13.1157 3.09202C12.9239 2.71569 12.618 2.40973 12.2416 2.21799C11.8138 2 11.2538 2 10.1337 2H5.86699C4.74689 2 4.18683 2 3.75901 2.21799C3.38269 2.40973 3.07673 2.71569 2.88498 3.09202C2.66699 3.51984 2.66699 4.0799 2.66699 5.2V14L4.50033 12.6667L6.16699 14L8.00033 12.6667L9.83366 14L11.5003 12.6667L13.3337 14Z" stroke="#000042" stroke-linecap="square"/>
</svg>
