<svg width="106" height="33" viewBox="0 0 106 33" fill="none" xmlns="http://www.w3.org/2000/svg">
<rect y="0.46814" width="106" height="32" rx="8" fill="#00BBC7"/>
<g clip-path="url(#clip0_3552_125709)">
<path d="M12.72 20.4681V13.0181H15.15C15.9367 13.0181 16.62 13.1781 17.2 13.4981C17.7867 13.8115 18.24 14.2481 18.56 14.8081C18.88 15.3615 19.04 16.0048 19.04 16.7381C19.04 17.4648 18.88 18.1115 18.56 18.6781C18.24 19.2381 17.7867 19.6781 17.2 19.9981C16.62 20.3115 15.9367 20.4681 15.15 20.4681H12.72ZM14.08 19.2681H15.18C15.6867 19.2681 16.1233 19.1648 16.49 18.9581C16.8633 18.7448 17.1533 18.4515 17.36 18.0781C17.5667 17.6981 17.67 17.2515 17.67 16.7381C17.67 16.2181 17.5667 15.7715 17.36 15.3981C17.1533 15.0248 16.8633 14.7348 16.49 14.5281C16.1233 14.3215 15.6867 14.2181 15.18 14.2181H14.08V19.2681ZM23.7923 20.5881C23.2457 20.5881 22.7357 20.4915 22.2623 20.2981C21.789 20.1048 21.3757 19.8348 21.0223 19.4881C20.669 19.1415 20.3923 18.7348 20.1923 18.2681C19.999 17.7948 19.9023 17.2848 19.9023 16.7381C19.9023 16.1848 19.999 15.6748 20.1923 15.2081C20.3857 14.7415 20.659 14.3348 21.0123 13.9881C21.3657 13.6415 21.779 13.3748 22.2523 13.1881C22.7257 12.9948 23.239 12.8981 23.7923 12.8981C24.3457 12.8981 24.859 12.9948 25.3323 13.1881C25.8057 13.3815 26.219 13.6515 26.5723 13.9981C26.9257 14.3381 27.199 14.7415 27.3923 15.2081C27.5923 15.6748 27.6923 16.1848 27.6923 16.7381C27.6923 17.2848 27.5923 17.7948 27.3923 18.2681C27.1923 18.7348 26.9157 19.1415 26.5623 19.4881C26.209 19.8348 25.7957 20.1048 25.3223 20.2981C24.8557 20.4915 24.3457 20.5881 23.7923 20.5881ZM23.7923 19.3481C24.159 19.3481 24.4957 19.2848 24.8023 19.1581C25.109 19.0248 25.3757 18.8415 25.6023 18.6081C25.8357 18.3748 26.0123 18.0981 26.1323 17.7781C26.259 17.4581 26.3223 17.1115 26.3223 16.7381C26.3223 16.3648 26.259 16.0215 26.1323 15.7081C26.0123 15.3881 25.8357 15.1115 25.6023 14.8781C25.3757 14.6381 25.109 14.4548 24.8023 14.3281C24.4957 14.2015 24.159 14.1381 23.7923 14.1381C23.4323 14.1381 23.099 14.2015 22.7923 14.3281C22.4857 14.4548 22.2157 14.6381 21.9823 14.8781C21.7557 15.1115 21.579 15.3881 21.4523 15.7081C21.3257 16.0215 21.2623 16.3648 21.2623 16.7381C21.2623 17.1115 21.3257 17.4581 21.4523 17.7781C21.579 18.0981 21.7557 18.3748 21.9823 18.6081C22.2157 18.8415 22.4857 19.0248 22.7923 19.1581C23.099 19.2848 23.4323 19.3481 23.7923 19.3481ZM30.0963 20.4681L28.0963 13.0181H29.5563L31.1263 19.3681H30.7463L32.3863 13.0181H33.7963L35.4263 19.3681H35.0463L36.6163 13.0181H38.0763L36.0763 20.4681H34.5163L32.8663 14.2881H33.3063L31.6563 20.4681H30.0963ZM38.9016 20.4681V13.0181H39.9616L44.0616 18.5381L43.5116 18.6481V13.0181H44.8716V20.4681H43.8016L39.7616 14.9081L40.2616 14.7981V20.4681H38.9016ZM46.3138 20.4681V13.0181H47.6738V19.2681H50.8638V20.4681H46.3138ZM55.2181 20.5881C54.6715 20.5881 54.1615 20.4915 53.6881 20.2981C53.2148 20.1048 52.8015 19.8348 52.4481 19.4881C52.0948 19.1415 51.8181 18.7348 51.6181 18.2681C51.4248 17.7948 51.3281 17.2848 51.3281 16.7381C51.3281 16.1848 51.4248 15.6748 51.6181 15.2081C51.8115 14.7415 52.0848 14.3348 52.4381 13.9881C52.7915 13.6415 53.2048 13.3748 53.6781 13.1881C54.1515 12.9948 54.6648 12.8981 55.2181 12.8981C55.7715 12.8981 56.2848 12.9948 56.7581 13.1881C57.2315 13.3815 57.6448 13.6515 57.9981 13.9981C58.3515 14.3381 58.6248 14.7415 58.8181 15.2081C59.0181 15.6748 59.1181 16.1848 59.1181 16.7381C59.1181 17.2848 59.0181 17.7948 58.8181 18.2681C58.6181 18.7348 58.3415 19.1415 57.9881 19.4881C57.6348 19.8348 57.2215 20.1048 56.7481 20.2981C56.2815 20.4915 55.7715 20.5881 55.2181 20.5881ZM55.2181 19.3481C55.5848 19.3481 55.9215 19.2848 56.2281 19.1581C56.5348 19.0248 56.8015 18.8415 57.0281 18.6081C57.2615 18.3748 57.4381 18.0981 57.5581 17.7781C57.6848 17.4581 57.7481 17.1115 57.7481 16.7381C57.7481 16.3648 57.6848 16.0215 57.5581 15.7081C57.4381 15.3881 57.2615 15.1115 57.0281 14.8781C56.8015 14.6381 56.5348 14.4548 56.2281 14.3281C55.9215 14.2015 55.5848 14.1381 55.2181 14.1381C54.8581 14.1381 54.5248 14.2015 54.2181 14.3281C53.9115 14.4548 53.6415 14.6381 53.4081 14.8781C53.1815 15.1115 53.0048 15.3881 52.8781 15.7081C52.7515 16.0215 52.6881 16.3648 52.6881 16.7381C52.6881 17.1115 52.7515 17.4581 52.8781 17.7781C53.0048 18.0981 53.1815 18.3748 53.4081 18.6081C53.6415 18.8415 53.9115 19.0248 54.2181 19.1581C54.5248 19.2848 54.8581 19.3481 55.2181 19.3481ZM59.4147 20.4681L61.9847 13.0181H63.7447L66.3147 20.4681H64.8347L64.3047 18.8681H61.4247L60.8847 20.4681H59.4147ZM61.8147 17.6681H63.9147L62.6747 13.9581H63.0547L61.8147 17.6681ZM67.1438 20.4681V13.0181H69.5738C70.3605 13.0181 71.0438 13.1781 71.6238 13.4981C72.2105 13.8115 72.6638 14.2481 72.9838 14.8081C73.3038 15.3615 73.4638 16.0048 73.4638 16.7381C73.4638 17.4648 73.3038 18.1115 72.9838 18.6781C72.6638 19.2381 72.2105 19.6781 71.6238 19.9981C71.0438 20.3115 70.3605 20.4681 69.5738 20.4681H67.1438ZM68.5038 19.2681H69.6038C70.1105 19.2681 70.5472 19.1648 70.9138 18.9581C71.2872 18.7448 71.5772 18.4515 71.7838 18.0781C71.9905 17.6981 72.0938 17.2515 72.0938 16.7381C72.0938 16.2181 71.9905 15.7715 71.7838 15.3981C71.5772 15.0248 71.2872 14.7348 70.9138 14.5281C70.5472 14.3215 70.1105 14.2181 69.6038 14.2181H68.5038V19.2681Z" fill="white"/>
</g>
<g clip-path="url(#clip1_3552_125709)">
<path d="M92 18.4681V19.2681C92 20.3882 92 20.9483 91.782 21.3761C91.5903 21.7524 91.2843 22.0584 90.908 22.2502C90.4802 22.4681 89.9201 22.4681 88.8 22.4681H83.2C82.0799 22.4681 81.5198 22.4681 81.092 22.2502C80.7157 22.0584 80.4097 21.7524 80.218 21.3761C80 20.9483 80 20.3882 80 19.2681V18.4681M89.3333 15.1348L86 18.4681M86 18.4681L82.6667 15.1348M86 18.4681V10.4681" stroke="white" stroke-width="1.5" stroke-linecap="square"/>
</g>
<defs>
<clipPath id="clip0_3552_125709">
<rect width="62" height="12" fill="white" transform="translate(12 10.4681)"/>
</clipPath>
<clipPath id="clip1_3552_125709">
<rect width="16" height="16" fill="white" transform="translate(78 8.46814)"/>
</clipPath>
</defs>
</svg>
