<svg width="28" height="36" viewBox="0 0 28 36" fill="none" xmlns="http://www.w3.org/2000/svg">
<path d="M5.93884 4.92299C2.89582 5.95791 2.81555 10.6926 3.25807 13.5908C3.32118 14.0041 3.17555 14.4164 2.95693 14.7728C1.71318 16.8003 3.26166 20.1543 4.37834 21.8536C4.4627 21.9819 4.52495 22.1225 4.56455 22.2709C4.82352 23.2413 5.3606 24.6256 6.14623 26.0252C7.29921 27.6314 7.46441 27.9368 9.32111 29.7569C10.4385 30.8524 11.6327 31.675 13.3693 31.675C14.9465 31.675 15.7457 31.6195 17.4268 30.2142C18.7757 29.0866 19.283 28.6097 20.7429 26.0252C21.5635 24.5723 22.0232 23.1551 22.2682 22.2509C22.305 22.1152 22.364 21.9849 22.4408 21.8671C24.6228 18.5209 24.4054 15.9732 23.8696 14.739C23.7273 14.411 23.644 14.0486 23.711 13.6974C24.6698 8.6704 22.9644 5.54853 21.3384 4.01861C20.7912 3.50375 20.9407 2.25385 20.9997 1.50483C21.0403 0.988141 20.556 1.07024 20.0468 1.16694C17.9848 1.55856 15.4065 1.44976 14.2466 1.32765C10.0141 0.586966 7.90318 2.43416 7.10638 3.93721C6.8622 4.39781 6.43239 4.75513 5.93884 4.92299Z" stroke="#000042" stroke-width="0.96"/>
<path d="M19.1665 28.5992V31.1021C19.1665 31.5952 19.4581 32.0415 19.9097 32.2397L25.7704 34.8112" stroke="#000042" stroke-width="0.96" stroke-linecap="round"/>
<path d="M7.40402 27.7167V31.032C7.40402 31.5206 7.11763 31.9638 6.6722 32.1646L0.800181 34.8111" stroke="#000042" stroke-width="0.96" stroke-linecap="round"/>
<path d="M4.77684 23.0792L4.25403 16.1519C4.08048 13.8524 5.74576 12.0355 7.29948 10.3314V10.3314C10.3411 12.0043 15.7909 11.9863 19.0097 10.3314" stroke="#000042" stroke-width="0.96" stroke-linejoin="round"/>
<path d="M22.0287 23.0791L22.4857 17.0243C22.6936 14.2692 20.3983 12.3792 18.5367 10.3375V10.3375" stroke="#000042" stroke-width="0.96" stroke-linejoin="round"/>
<path d="M21.6594 4.33948C22.2392 5.49541 21.7672 6.90518 20.6051 7.48811" stroke="#000042" stroke-width="0.815463" stroke-miterlimit="10"/>
<path d="M22.6348 3.85046C23.2146 5.00639 24.6269 5.47095 25.789 4.88802" stroke="#000042" stroke-width="0.96" stroke-miterlimit="10"/>
<path d="M25.2363 9.03706C24.6565 7.88114 25.1286 6.47136 26.2907 5.88843" stroke="#000042" stroke-width="0.96" stroke-miterlimit="10"/>
<path d="M24.2609 9.52645C23.6811 8.37052 22.2688 7.90596 21.1067 8.48889" stroke="#000042" stroke-width="0.815463" stroke-miterlimit="10"/>
<path d="M22.248 4.403C22.4703 5.61206 22.0825 6.55102 21.8608 6.86936L21.799 7.7896C22.8436 7.67369 23.8377 8.29926 24.3473 8.91086L24.1338 6.50699L22.248 4.403Z" fill="white"/>
</svg>
