<svg width="28" height="34" viewBox="0 0 28 34" fill="none" xmlns="http://www.w3.org/2000/svg">
<path d="M1.27945 16.9702C1.27945 16.9702 5.60774 24.8603 13.9994 24.8603C22.3912 24.8603 26.7194 16.9702 26.7194 16.9702C26.7194 16.9702 22.3912 9.08008 13.9994 9.08008C5.60774 9.08008 1.27945 16.9702 1.27945 16.9702Z" stroke="#000042" stroke-width="0.056358" stroke-miterlimit="10"/>
<path d="M1.27945 16.9702C1.27945 16.9702 5.60774 24.8603 13.9994 24.8603C22.3912 24.8603 26.7194 16.9702 26.7194 16.9702C26.7194 16.9702 22.3912 9.08008 13.9994 9.08008C5.60774 9.08008 1.27945 16.9702 1.27945 16.9702Z" stroke="#000042" stroke-width="0.96" stroke-miterlimit="10"/>
<path d="M1.27945 17.0035C5.53917 14.9795 16.5428 12.1459 26.4795 17.0035" stroke="#000042" stroke-width="0.96"/>
<path d="M26.4795 17.0068C22.2197 19.1188 11.2161 22.0756 1.27946 17.0068" stroke="#000042" stroke-width="0.96"/>
<circle cx="13.9995" cy="17" r="3.12" fill="#000042"/>
<path d="M13.9995 6.92004L13.9995 0.920044" stroke="#000042" stroke-width="0.96"/>
<path d="M11.2394 7.1601L9.43945 2.6001" stroke="#000042" stroke-width="0.96"/>
<path d="M8.59944 7.88002L5.71944 4.04002" stroke="#000042" stroke-width="0.96"/>
<path d="M16.8195 7.1601L18.6195 2.6001" stroke="#000042" stroke-width="0.96"/>
<path d="M13.9995 27.3201L13.9995 33.3201" stroke="#000042" stroke-width="0.96"/>
<path d="M16.7595 27.08L18.5595 31.64" stroke="#000042" stroke-width="0.96"/>
<path d="M19.3995 26.3601L22.2795 30.2001" stroke="#000042" stroke-width="0.96"/>
<path d="M11.1795 27.08L9.37945 31.64" stroke="#000042" stroke-width="0.96"/>
<path d="M13.9995 6.92004L13.9995 0.920044" stroke="#000042" stroke-width="0.96"/>
<path d="M16.7595 7.1601L18.5595 2.6001" stroke="#000042" stroke-width="0.96"/>
<path d="M19.3995 7.88002L22.2795 4.04002" stroke="#000042" stroke-width="0.96"/>
<path d="M13.9995 27.3201L13.9995 33.3201" stroke="#000042" stroke-width="0.96"/>
<path d="M11.2394 27.08L9.43945 31.64" stroke="#000042" stroke-width="0.96"/>
<path d="M8.59944 26.3601L5.71944 30.2001" stroke="#000042" stroke-width="0.96"/>
</svg>
