<svg width="115" height="65" viewBox="0 0 115 65" fill="none" xmlns="http://www.w3.org/2000/svg">
<path d="M106.66 0H9.38939C8.04884 0 6.92526 1.01343 6.78743 2.34688L4.4953 24.5233C10.3815 25.259 8.58315 32.4525 3.59675 32.0437L0.324543 61.3449C0.151446 62.8949 1.36456 64.251 2.9242 64.251H111.859C113.391 64.251 114.595 62.941 114.466 61.4149L111.997 32.2072C106.513 31.635 105.614 25.8312 111.301 24.605L109.265 2.3772C109.141 1.03062 108.012 0 106.66 0Z" fill="url(#paint0_linear_11988_12460)"/>
<path d="M102.928 2.20703H11.9421C10.1781 2.20703 8.70468 3.55111 8.54308 5.30766L7.15502 20.3953C7.02962 21.7583 7.79139 23.0072 8.78127 23.9526C11.5849 26.63 11.0466 30.5064 7.51869 32.9038C6.51693 33.5846 5.71567 34.5809 5.5722 35.7835L3.06675 56.7857C2.82446 58.8168 4.41063 60.6034 6.45605 60.6034H107.759C109.767 60.6034 111.341 58.8783 111.158 56.8785L109.239 35.9349C109.121 34.6515 108.25 33.5955 107.195 32.8549C103.97 30.5897 103.471 26.6972 105.876 24.3404C106.973 23.2656 107.962 21.9114 107.811 20.3831L106.325 5.28602C106.153 3.53882 104.684 2.20703 102.928 2.20703Z" stroke="url(#paint1_linear_11988_12460)" stroke-width="0.163489"/>
<g clip-path="url(#clip0_11988_12460)">
<path d="M65.7176 22.6586V27.7134H63.7555V23.2473C63.7555 22.1022 63.2943 21.2094 62.0323 21.2094C60.6845 21.2094 60.1551 22.1022 60.1551 23.2473V27.7126H58.193V19.71H59.848L59.9534 20.754C60.4486 19.895 61.3694 19.4568 62.5321 19.4568C64.6421 19.4568 65.7176 20.8724 65.7176 22.6586ZM57.2381 24.3063H50.8232C51.028 25.3504 51.8297 26.2102 53.229 26.2102C54.215 26.2102 54.9863 25.7885 55.3276 25.0119L57.1191 25.5848C56.4873 27.0505 55.0713 27.9605 53.2116 27.9605C50.4652 27.9605 48.8611 25.9383 48.8611 23.6982C48.8611 21.3397 50.6017 19.4523 53.1782 19.4523C55.8054 19.4523 57.4771 21.4408 57.2381 24.3048V24.3063ZM55.3102 22.911C55.1395 21.9846 54.4061 21.2094 53.1782 21.2094C51.9154 21.2094 51.1304 21.9501 50.8573 22.911H55.3102ZM47.0287 16.0955H46.0131V27.7119H47.9752V17.0309C47.9786 16.9073 47.9564 16.7843 47.91 16.6694C47.8636 16.5545 47.794 16.4501 47.7054 16.3626C47.6169 16.2752 47.5112 16.2065 47.3948 16.1607C47.2785 16.1148 47.1539 16.0929 47.0287 16.0962V16.0955ZM82.2153 19.71H79.8436L76.6187 22.9949V17.0339C76.6136 16.7992 76.5178 16.5753 76.3508 16.4081C76.1838 16.241 75.9583 16.1433 75.7207 16.1352H74.6589V27.7164H76.621V25.3706L77.7473 24.2247L80.0522 27.7126H82.3215L79.0761 22.8773L82.2153 19.71ZM93.2704 20.9225L93.1506 19.71H91.4957V27.7126H93.4578V23.8375C93.4578 22.237 94.0554 21.5464 95.4373 21.5464H95.7778V19.5579C94.5325 19.5579 93.6625 20.0462 93.2704 20.9225V20.9225ZM100.726 21.4281V19.71H98.5075V17.1762H96.5454V24.4943C96.5454 26.5832 97.3478 27.7149 99.6679 27.7149H100.726V25.9436H99.702C98.9512 25.9436 98.5075 25.5391 98.5075 24.7452V21.4281H100.726ZM88.6469 19.71H90.3019V27.7126H88.3398V26.9037C87.7596 27.6115 86.9063 27.965 85.8149 27.965C83.3924 27.965 81.7034 26.2297 81.7034 23.7027C81.7034 21.1562 83.4091 19.4568 85.8149 19.4568C87.0284 19.4568 87.9643 19.895 88.5453 20.8049L88.6469 19.71ZM88.4596 23.7027C88.4596 22.2048 87.4524 21.2094 86.1046 21.2094C84.6719 21.2094 83.6821 22.2033 83.6821 23.7027C83.6821 25.2021 84.6681 26.2132 86.1046 26.2132C87.4524 26.2132 88.4596 25.2021 88.4596 23.7027ZM71.4325 22.9784L69.9156 22.7425C69.0115 22.5927 68.6528 22.3883 68.6528 21.9501C68.6528 21.5292 69.0623 21.1263 69.9838 21.1263C71.1784 21.1263 71.8094 21.6992 72.1507 22.3396L73.5493 21.2783C72.9865 20.3046 71.9626 19.4583 70.2228 19.4583C68.1074 19.4583 66.7931 20.5196 66.7931 22.019C66.7931 23.266 67.5439 24.1251 69.1822 24.361L70.6664 24.5805C71.7578 24.749 71.9118 25.0853 71.9118 25.456C71.9118 25.9279 71.3809 26.2986 70.5466 26.2986C69.4552 26.2986 68.5337 25.8267 67.9193 24.8007L66.3653 25.8792C67.2352 27.3277 68.6854 27.968 70.4086 27.968C72.627 27.968 73.8041 26.7547 73.8041 25.2553C73.8041 24.0929 73.1723 23.2503 71.4325 22.9814V22.9784ZM20.8995 26.4034C21.3692 26.5056 21.8489 26.5558 22.3299 26.5532C23.7998 26.5532 25.2044 26.0439 26.6872 24.9108C26.1562 24.0966 25.6815 23.1417 25.4365 22.0602C25.3462 24.6696 23.3743 26.3495 20.8995 26.4004V26.4034ZM41.8326 19.6673C41.8326 19.2853 41.7567 19.143 41.4587 19.0434L40.0821 18.6547C40.6888 19.5077 40.9975 20.4747 40.8944 21.9007L40.8686 22.2572H41.4359C41.6809 22.2572 41.8356 22.0917 41.8356 21.8498L41.8326 19.6673ZM13.3848 21.8498C13.3848 22.0917 13.5365 22.2572 13.7716 22.2572H14.2873L14.2615 21.8879C14.21 20.8057 14.5323 19.5714 15.1891 18.6547L13.7481 19.0494C13.4606 19.1385 13.3848 19.2883 13.3848 19.6733V21.8498ZM18.3731 18.5146C19.0845 17.9465 19.9716 17.6365 20.8866 17.6361C23.2066 17.6361 24.6788 18.8584 25.617 21.5442L26.0554 22.8549C27.0353 25.7189 29.3554 27.4625 32.3065 27.8954C30.4104 27.2962 28.7881 25.6807 27.5374 22.4347L27.0216 21.1367C26.0554 18.6292 24.0576 17.1275 21.557 17.1275C20.1774 17.1275 19.1209 17.5852 18.3716 18.5146H18.3731ZM35.542 16.2235C37.4624 17.013 38.6517 19.2531 38.6517 21.7861C38.6517 23.5551 38.0449 24.8568 36.4476 25.8207C38.8322 25.6298 40.5849 23.7589 40.5849 21.455C40.5849 18.8202 38.484 16.6055 35.5451 16.2235H35.542ZM24.4831 16.0962C25.7725 16.5546 26.5066 16.9875 27.6405 18.1184C28.4472 17.2243 29.4534 16.5277 30.5795 16.0835L24.4831 16.0962ZM27.8468 18.3895C28.4399 18.9752 29.2522 20.1871 29.7672 22.0303C29.7672 19.5864 31.8302 17.6383 34.189 17.6383C35.3744 17.6383 37.024 18.1222 37.991 19.7392C37.2561 17.2796 35.1522 15.918 33.0414 15.918C31.3402 15.918 29.4069 16.7838 27.8468 18.3895ZM14.6226 21.8879C14.6226 25.3242 17.3029 27.8444 20.951 27.8444C22.6522 27.8444 24.1866 27.2842 25.2689 26.2536C24.3216 26.7085 23.28 26.9393 22.2267 26.9277C18.8243 26.9277 16.5558 24.8778 16.5558 21.8348C16.5558 18.8561 18.618 16.7418 21.6374 16.7418C24.3056 16.7418 26.355 18.3326 27.4888 21.2356L28.0562 22.6991C29.3068 25.9578 31.4206 27.8414 34.308 27.8414C36.8215 27.8414 38.8837 26.6326 39.8242 24.5325C38.7161 25.7923 36.5629 26.4162 34.7077 26.4162C32.2193 26.4162 30.531 25.0793 29.5002 22.2797L29.1362 21.2356C27.8984 17.8907 25.011 15.918 21.3485 15.918C17.3674 15.918 14.6226 18.3618 14.6226 21.8879Z" fill="white"/>
</g>
<g clip-path="url(#clip1_11988_12460)">
<path d="M39.0586 52.8109V45.7031H39.42V52.8109H39.0586ZM40.5042 52.8109V45.7031H41.2271V52.8109H40.5042ZM41.5885 52.8109V45.7031H42.6727V52.8109H41.5885Z" fill="#CCCCD9"/>
</g>
<g clip-path="url(#clip2_11988_12460)">
<path d="M44.0781 52.8109V45.7031H44.4395V52.8109H44.0781ZM45.5238 52.8109V45.7031H46.2466V52.8109H45.5238ZM46.608 52.8109V45.7031H46.9694V52.8109H46.608Z" fill="#CCCCD9"/>
</g>
<g clip-path="url(#clip3_11988_12460)">
<path d="M48.0938 52.8109V45.7031H48.4552V52.8109H48.0938ZM48.8166 52.8109V45.7031H49.9008V52.8109H48.8166ZM50.985 52.8109V45.7031H51.7079V52.8109H50.985Z" fill="#CCCCD9"/>
</g>
<g clip-path="url(#clip4_11988_12460)">
<path d="M53.1133 52.8109V45.7031H53.8361V52.8109H53.1133ZM54.1975 52.8109V45.7031H55.2818V52.8109H54.1975ZM55.6432 52.8109V45.7031H56.0046V52.8109H55.6432Z" fill="#CCCCD9"/>
</g>
<g clip-path="url(#clip5_11988_12460)">
<path d="M57.1289 52.8109V45.7031H57.4903V52.8109H57.1289ZM57.8517 52.8109V45.7031H58.5746V52.8109H57.8517ZM59.6588 52.8109V45.7031H60.743V52.8109H59.6588Z" fill="#CCCCD9"/>
</g>
<g clip-path="url(#clip6_11988_12460)">
<path d="M62.1484 52.8109V45.7031H62.5098V52.8109H62.1484ZM62.8713 52.8109V45.7031H63.2327V52.8109H62.8713ZM64.3169 52.8109V45.7031H65.0397V52.8109H64.3169Z" fill="#CCCCD9"/>
</g>
<g clip-path="url(#clip7_11988_12460)">
<path d="M67.1641 52.8109V45.7031H67.8869V52.8109H67.1641ZM68.9711 52.8109V45.7031H69.3325V52.8109H68.9711ZM69.6939 52.8109V45.7031H70.7782V52.8109H69.6939Z" fill="#CCCCD9"/>
</g>
<g clip-path="url(#clip8_11988_12460)">
<path d="M72.1875 52.8109V45.7031H72.9103V52.8109H72.1875ZM73.2717 52.8109V45.7031H74.356V52.8109H73.2717ZM75.4402 52.8109V45.7031H75.8016V52.8109H75.4402Z" fill="#CCCCD9"/>
</g>
<path d="M36.4845 56.8086V53.8881H36.8382V56.4949H38.1957V56.8086H36.4845ZM38.7433 56.8086V53.8881H40.5059V54.2018H39.097V55.1886H40.4146V55.5024H39.097V56.4949H40.5287V56.8086H38.7433ZM43.4592 53.8881V56.8086H43.117L41.5255 54.5155H41.497V56.8086H41.1433V53.8881H41.4856L43.0827 56.1868H43.1113V53.8881H43.4592ZM45.764 54.6182C45.7469 54.4737 45.6775 54.3615 45.5558 54.2817C45.4341 54.2018 45.2849 54.1619 45.108 54.1619C44.9788 54.1619 44.8656 54.1828 44.7687 54.2246C44.6726 54.2665 44.5975 54.324 44.5433 54.3972C44.4901 54.4704 44.4635 54.5536 44.4635 54.6467C44.4635 54.7247 44.482 54.7917 44.5191 54.8478C44.5571 54.9029 44.6056 54.9491 44.6646 54.9861C44.7235 55.0223 44.7853 55.0522 44.8499 55.076C44.9146 55.0988 44.974 55.1173 45.0282 55.1316L45.3248 55.2114C45.4009 55.2314 45.4855 55.259 45.5786 55.2942C45.6728 55.3293 45.7626 55.3773 45.8482 55.4382C45.9347 55.4981 46.006 55.5751 46.0621 55.6692C46.1181 55.7633 46.1462 55.8788 46.1462 56.0157C46.1462 56.1735 46.1048 56.3161 46.0221 56.4435C45.9404 56.5709 45.8206 56.6722 45.6628 56.7473C45.5059 56.8224 45.3153 56.8599 45.0909 56.8599C44.8818 56.8599 44.7007 56.8262 44.5476 56.7587C44.3955 56.6912 44.2757 56.5971 44.1883 56.4763C44.1017 56.3556 44.0528 56.2154 44.0414 56.0557H44.4064C44.4159 56.1659 44.453 56.2572 44.5177 56.3294C44.5833 56.4008 44.666 56.454 44.7658 56.4892C44.8666 56.5234 44.9749 56.5405 45.0909 56.5405C45.2259 56.5405 45.3471 56.5186 45.4546 56.4749C45.562 56.4302 45.6471 56.3684 45.7098 56.2895C45.7726 56.2097 45.8039 56.1165 45.8039 56.01C45.8039 55.913 45.7769 55.8341 45.7227 55.7733C45.6685 55.7125 45.5972 55.663 45.5088 55.625C45.4203 55.587 45.3248 55.5537 45.2221 55.5252L44.8628 55.4225C44.6346 55.3569 44.454 55.2633 44.3209 55.1416C44.1878 55.0199 44.1212 54.8606 44.1212 54.6639C44.1212 54.5003 44.1654 54.3577 44.2539 54.236C44.3432 54.1134 44.463 54.0183 44.6132 53.9508C44.7644 53.8824 44.9331 53.8482 45.1195 53.8482C45.3077 53.8482 45.475 53.8819 45.6214 53.9494C45.7678 54.016 45.8838 54.1072 45.9694 54.2232C46.0559 54.3392 46.1015 54.4709 46.1063 54.6182H45.764ZM46.7277 56.8086V53.8881H47.0813V55.3369H47.1155L48.4275 53.8881H48.8895L47.6631 55.2057L48.8895 56.8086H48.4617L47.4464 55.451L47.0813 55.8617V56.8086H46.7277ZM49.467 56.8086H49.0963L50.1687 53.8881H50.5337L51.6061 56.8086H51.2353L50.3626 54.3501H50.3398L49.467 56.8086ZM49.6039 55.6678H51.0984V55.9815H49.6039V55.6678ZM52.061 56.8086V53.8881H53.0478C53.276 53.8881 53.4632 53.9271 53.6097 54.005C53.7561 54.082 53.8644 54.188 53.9348 54.323C54.0051 54.458 54.0403 54.6116 54.0403 54.7836C54.0403 54.9557 54.0051 55.1083 53.9348 55.2414C53.8644 55.3745 53.7565 55.4791 53.6111 55.5551C53.4656 55.6302 53.2798 55.6678 53.0535 55.6678H52.2549V55.3483H53.0421C53.198 55.3483 53.3235 55.3255 53.4186 55.2799C53.5146 55.2343 53.584 55.1696 53.6268 55.086C53.6705 55.0013 53.6924 54.9006 53.6924 54.7836C53.6924 54.6667 53.6705 54.5645 53.6268 54.477C53.583 54.3896 53.5132 54.3221 53.4171 54.2745C53.3211 54.2261 53.1942 54.2018 53.0364 54.2018H52.4146V56.8086H52.061ZM53.4357 55.4967L54.1544 56.8086H53.7437L53.0364 55.4967H53.4357ZM54.4699 54.2018V53.8881H56.6603V54.2018H55.7419V56.8086H55.3883V54.2018H54.4699ZM59.5847 53.8881L60.4517 56.3466H60.4859L61.353 53.8881H61.7237L60.6514 56.8086H60.2863L59.2139 53.8881H59.5847ZM64.5056 55.3483C64.5056 55.6564 64.4499 55.9226 64.3387 56.1469C64.2275 56.3713 64.0749 56.5443 63.881 56.666C63.687 56.7877 63.4655 56.8485 63.2164 56.8485C62.9673 56.8485 62.7458 56.7877 62.5519 56.666C62.358 56.5443 62.2054 56.3713 62.0941 56.1469C61.9829 55.9226 61.9273 55.6564 61.9273 55.3483C61.9273 55.0403 61.9829 54.7741 62.0941 54.5498C62.2054 54.3254 62.358 54.1524 62.5519 54.0307C62.7458 53.909 62.9673 53.8482 63.2164 53.8482C63.4655 53.8482 63.687 53.909 63.881 54.0307C64.0749 54.1524 64.2275 54.3254 64.3387 54.5498C64.4499 54.7741 64.5056 55.0403 64.5056 55.3483ZM64.1633 55.3483C64.1633 55.0955 64.121 54.882 64.0364 54.7081C63.9527 54.5341 63.8391 54.4024 63.6956 54.313C63.553 54.2237 63.3933 54.179 63.2164 54.179C63.0396 54.179 62.8794 54.2237 62.7359 54.313C62.5933 54.4024 62.4796 54.5341 62.395 54.7081C62.3114 54.882 62.2695 55.0955 62.2695 55.3483C62.2695 55.6012 62.3114 55.8147 62.395 55.9886C62.4796 56.1626 62.5933 56.2943 62.7359 56.3836C62.8794 56.473 63.0396 56.5177 63.2164 56.5177C63.3933 56.5177 63.553 56.473 63.6956 56.3836C63.8391 56.2943 63.9527 56.1626 64.0364 55.9886C64.121 55.8147 64.1633 55.6012 64.1633 55.3483ZM67.0168 53.8881H67.3704V55.8218C67.3704 56.0214 67.3234 56.1997 67.2293 56.3565C67.1361 56.5125 67.0044 56.6356 66.8343 56.7259C66.6641 56.8152 66.4644 56.8599 66.2353 56.8599C66.0062 56.8599 65.8066 56.8152 65.6364 56.7259C65.4662 56.6356 65.3341 56.5125 65.24 56.3565C65.1468 56.1997 65.1002 56.0214 65.1002 55.8218V53.8881H65.4539V55.7933C65.4539 55.9359 65.4852 56.0628 65.548 56.174C65.6107 56.2843 65.7001 56.3713 65.8161 56.435C65.933 56.4977 66.0728 56.5291 66.2353 56.5291C66.3979 56.5291 66.5376 56.4977 66.6546 56.435C66.7715 56.3713 66.8609 56.2843 66.9227 56.174C66.9854 56.0628 67.0168 55.9359 67.0168 55.7933V53.8881ZM70.4268 54.8008H70.0731C70.0522 54.699 70.0156 54.6097 69.9633 54.5327C69.912 54.4557 69.8492 54.391 69.7751 54.3387C69.7019 54.2855 69.6206 54.2456 69.5312 54.2189C69.4419 54.1923 69.3487 54.179 69.2517 54.179C69.0749 54.179 68.9147 54.2237 68.7712 54.313C68.6285 54.4024 68.5149 54.5341 68.4303 54.7081C68.3467 54.882 68.3048 55.0955 68.3048 55.3483C68.3048 55.6012 68.3467 55.8147 68.4303 55.9886C68.5149 56.1626 68.6285 56.2943 68.7712 56.3836C68.9147 56.473 69.0749 56.5177 69.2517 56.5177C69.3487 56.5177 69.4419 56.5044 69.5312 56.4778C69.6206 56.4511 69.7019 56.4117 69.7751 56.3594C69.8492 56.3062 69.912 56.241 69.9633 56.164C70.0156 56.0861 70.0522 55.9967 70.0731 55.8959H70.4268C70.4001 56.0452 70.3517 56.1788 70.2813 56.2967C70.211 56.4145 70.1235 56.5148 70.0189 56.5975C69.9143 56.6793 69.7969 56.7416 69.6667 56.7844C69.5374 56.8271 69.3991 56.8485 69.2517 56.8485C69.0026 56.8485 68.7811 56.7877 68.5872 56.666C68.3933 56.5443 68.2407 56.3713 68.1294 56.1469C68.0182 55.9226 67.9626 55.6564 67.9626 55.3483C67.9626 55.0403 68.0182 54.7741 68.1294 54.5498C68.2407 54.3254 68.3933 54.1524 68.5872 54.0307C68.7811 53.909 69.0026 53.8482 69.2517 53.8482C69.3991 53.8482 69.5374 53.8696 69.6667 53.9123C69.7969 53.9551 69.9143 54.0179 70.0189 54.1006C70.1235 54.1823 70.211 54.2822 70.2813 54.4C70.3517 54.517 70.4001 54.6505 70.4268 54.8008ZM70.9982 56.8086V53.8881H71.3519V55.1886H72.9091V53.8881H73.2628V56.8086H72.9091V55.5024H71.3519V56.8086H70.9982ZM73.9708 56.8086V53.8881H75.7334V54.2018H74.3245V55.1886H75.6421V55.5024H74.3245V56.4949H75.7562V56.8086H73.9708ZM76.3708 56.8086V53.8881H77.3576C77.5858 53.8881 77.7731 53.9271 77.9195 54.005C78.0659 54.082 78.1742 54.188 78.2446 54.323C78.3149 54.458 78.3501 54.6116 78.3501 54.7836C78.3501 54.9557 78.3149 55.1083 78.2446 55.2414C78.1742 55.3745 78.0663 55.4791 77.9209 55.5551C77.7754 55.6302 77.5896 55.6678 77.3633 55.6678H76.5647V55.3483H77.3519C77.5078 55.3483 77.6333 55.3255 77.7284 55.2799C77.8244 55.2343 77.8938 55.1696 77.9366 55.086C77.9803 55.0013 78.0022 54.9006 78.0022 54.7836C78.0022 54.6667 77.9803 54.5645 77.9366 54.477C77.8928 54.3896 77.823 54.3221 77.7269 54.2745C77.6309 54.2261 77.504 54.2018 77.3462 54.2018H76.7244V56.8086H76.3708ZM77.7455 55.4967L78.4642 56.8086H78.0535L77.3462 55.4967H77.7455Z" fill="#CCCCD9"/>
<defs>
<linearGradient id="paint0_linear_11988_12460" x1="57.4662" y1="0" x2="57.4662" y2="64.251" gradientUnits="userSpaceOnUse">
<stop stop-color="#000042"/>
<stop offset="1" stop-color="#333368"/>
</linearGradient>
<linearGradient id="paint1_linear_11988_12460" x1="57.3029" y1="2.20703" x2="57.3029" y2="59.8367" gradientUnits="userSpaceOnUse">
<stop stop-color="#020274"/>
<stop offset="1" stop-color="#42428A"/>
</linearGradient>
<clipPath id="clip0_11988_12460">
<rect width="87.3412" height="12.0471" fill="white" transform="translate(13.3848 15.918)"/>
</clipPath>
<clipPath id="clip1_11988_12460">
<rect width="4.01569" height="7.02745" fill="white" transform="translate(39.0586 45.7812)"/>
</clipPath>
<clipPath id="clip2_11988_12460">
<rect width="3.01176" height="7.02745" fill="white" transform="translate(44.0781 45.7812)"/>
</clipPath>
<clipPath id="clip3_11988_12460">
<rect width="4.01569" height="7.02745" fill="white" transform="translate(48.0938 45.7812)"/>
</clipPath>
<clipPath id="clip4_11988_12460">
<rect width="3.01176" height="7.02745" fill="white" transform="translate(53.1133 45.7812)"/>
</clipPath>
<clipPath id="clip5_11988_12460">
<rect width="4.01569" height="7.02745" fill="white" transform="translate(57.1289 45.7812)"/>
</clipPath>
<clipPath id="clip6_11988_12460">
<rect width="4.01569" height="7.02745" fill="white" transform="translate(62.1484 45.7812)"/>
</clipPath>
<clipPath id="clip7_11988_12460">
<rect width="4.01569" height="7.02745" fill="white" transform="translate(67.168 45.7812)"/>
</clipPath>
<clipPath id="clip8_11988_12460">
<rect width="4.01569" height="7.02745" fill="white" transform="translate(72.1875 45.7812)"/>
</clipPath>
</defs>
</svg>
