<svg width="360" height="90" viewBox="0 0 360 90" fill="none" xmlns="http://www.w3.org/2000/svg">
<g clip-path="url(#clip0_16589_54985)">
<rect x="16" y="10" width="328" height="80" rx="20" fill="url(#paint0_linear_16589_54985)"/>
<g filter="url(#filter0_f_16589_54985)">
<circle cx="281.485" cy="157.1" r="84.2222" transform="rotate(51.1565 281.485 157.1)" fill="#FBE3B8"/>
</g>
<g filter="url(#filter1_f_16589_54985)">
<circle cx="342.706" cy="89.5286" r="72.0413" transform="rotate(51.1565 342.706 89.5286)" fill="#BE9245"/>
</g>
<path d="M46.752 39.192C45.8987 39.192 45.1093 39.0373 44.384 38.728C43.6693 38.4187 43.04 37.9867 42.496 37.432C41.9627 36.8773 41.5467 36.2267 41.248 35.48C40.9493 34.7333 40.8 33.9173 40.8 33.032C40.8 32.1467 40.944 31.3307 41.232 30.584C41.5307 29.8267 41.9467 29.176 42.48 28.632C43.024 28.0773 43.6587 27.6507 44.384 27.352C45.1093 27.0427 45.8987 26.888 46.752 26.888C47.6053 26.888 48.368 27.032 49.04 27.32C49.7227 27.608 50.2987 27.992 50.768 28.472C51.2373 28.9413 51.5733 29.4587 51.776 30.024L49.824 30.936C49.6 30.3387 49.2213 29.848 48.688 29.464C48.1547 29.0693 47.5093 28.872 46.752 28.872C46.0053 28.872 45.344 29.048 44.768 29.4C44.2027 29.752 43.76 30.2373 43.44 30.856C43.1307 31.4747 42.976 32.2 42.976 33.032C42.976 33.864 43.1307 34.5947 43.44 35.224C43.76 35.8427 44.2027 36.328 44.768 36.68C45.344 37.032 46.0053 37.208 46.752 37.208C47.5093 37.208 48.1547 37.016 48.688 36.632C49.2213 36.2373 49.6 35.7413 49.824 35.144L51.776 36.056C51.5733 36.6213 51.2373 37.144 50.768 37.624C50.2987 38.0933 49.7227 38.472 49.04 38.76C48.368 39.048 47.6053 39.192 46.752 39.192ZM53.3666 39V26.888H55.4626V32.008L55.1746 31.704C55.3773 31.1813 55.708 30.7867 56.1666 30.52C56.636 30.2427 57.18 30.104 57.7986 30.104C58.4386 30.104 59.004 30.2427 59.4946 30.52C59.996 30.7973 60.3853 31.1867 60.6626 31.688C60.94 32.1787 61.0786 32.7493 61.0786 33.4V39H58.9826V33.896C58.9826 33.512 58.908 33.1813 58.7586 32.904C58.6093 32.6267 58.4013 32.4133 58.1346 32.264C57.8786 32.104 57.5746 32.024 57.2226 32.024C56.8813 32.024 56.5773 32.104 56.3106 32.264C56.044 32.4133 55.836 32.6267 55.6866 32.904C55.5373 33.1813 55.4626 33.512 55.4626 33.896V39H53.3666ZM67.107 39.192C66.2537 39.192 65.475 38.9947 64.771 38.6C64.0777 38.2053 63.523 37.6667 63.107 36.984C62.7017 36.3013 62.499 35.5227 62.499 34.648C62.499 33.7733 62.7017 32.9947 63.107 32.312C63.523 31.6293 64.0777 31.0907 64.771 30.696C65.4643 30.3013 66.243 30.104 67.107 30.104C67.9603 30.104 68.7337 30.3013 69.427 30.696C70.1203 31.0907 70.6697 31.6293 71.075 32.312C71.491 32.984 71.699 33.7627 71.699 34.648C71.699 35.5227 71.491 36.3013 71.075 36.984C70.659 37.6667 70.1043 38.2053 69.411 38.6C68.7177 38.9947 67.9497 39.192 67.107 39.192ZM67.107 37.272C67.5763 37.272 67.987 37.16 68.339 36.936C68.7017 36.712 68.9843 36.4027 69.187 36.008C69.4003 35.6027 69.507 35.1493 69.507 34.648C69.507 34.136 69.4003 33.688 69.187 33.304C68.9843 32.9093 68.7017 32.6 68.339 32.376C67.987 32.1413 67.5763 32.024 67.107 32.024C66.627 32.024 66.2057 32.1413 65.843 32.376C65.4803 32.6 65.1923 32.9093 64.979 33.304C64.7763 33.688 64.675 34.136 64.675 34.648C64.675 35.1493 64.7763 35.6027 64.979 36.008C65.1923 36.4027 65.4803 36.712 65.843 36.936C66.2057 37.16 66.627 37.272 67.107 37.272ZM77.5445 39.192C76.6912 39.192 75.9125 38.9947 75.2085 38.6C74.5152 38.2053 73.9605 37.6667 73.5445 36.984C73.1392 36.3013 72.9365 35.5227 72.9365 34.648C72.9365 33.7733 73.1392 32.9947 73.5445 32.312C73.9605 31.6293 74.5152 31.0907 75.2085 30.696C75.9018 30.3013 76.6805 30.104 77.5445 30.104C78.3978 30.104 79.1712 30.3013 79.8645 30.696C80.5578 31.0907 81.1072 31.6293 81.5125 32.312C81.9285 32.984 82.1365 33.7627 82.1365 34.648C82.1365 35.5227 81.9285 36.3013 81.5125 36.984C81.0965 37.6667 80.5418 38.2053 79.8485 38.6C79.1552 38.9947 78.3872 39.192 77.5445 39.192ZM77.5445 37.272C78.0138 37.272 78.4245 37.16 78.7765 36.936C79.1392 36.712 79.4218 36.4027 79.6245 36.008C79.8378 35.6027 79.9445 35.1493 79.9445 34.648C79.9445 34.136 79.8378 33.688 79.6245 33.304C79.4218 32.9093 79.1392 32.6 78.7765 32.376C78.4245 32.1413 78.0138 32.024 77.5445 32.024C77.0645 32.024 76.6432 32.1413 76.2805 32.376C75.9178 32.6 75.6298 32.9093 75.4165 33.304C75.2138 33.688 75.1125 34.136 75.1125 34.648C75.1125 35.1493 75.2138 35.6027 75.4165 36.008C75.6298 36.4027 75.9178 36.712 76.2805 36.936C76.6432 37.16 77.0645 37.272 77.5445 37.272ZM87.038 39.192C86.11 39.192 85.2993 38.9733 84.606 38.536C83.9233 38.088 83.454 37.4853 83.198 36.728L84.766 35.976C84.99 36.4667 85.2993 36.8507 85.694 37.128C86.0993 37.4053 86.5473 37.544 87.038 37.544C87.422 37.544 87.726 37.4587 87.95 37.288C88.174 37.1173 88.286 36.8933 88.286 36.616C88.286 36.4453 88.238 36.3067 88.142 36.2C88.0567 36.0827 87.934 35.9867 87.774 35.912C87.6247 35.8267 87.4593 35.7573 87.278 35.704L85.854 35.304C85.118 35.0907 84.558 34.7653 84.174 34.328C83.8007 33.8907 83.614 33.3733 83.614 32.776C83.614 32.2427 83.7473 31.7787 84.014 31.384C84.2913 30.9787 84.67 30.664 85.15 30.44C85.6407 30.216 86.2007 30.104 86.83 30.104C87.6513 30.104 88.3767 30.3013 89.006 30.696C89.6353 31.0907 90.0833 31.6453 90.35 32.36L88.75 33.112C88.6007 32.7173 88.35 32.4027 87.998 32.168C87.646 31.9333 87.2513 31.816 86.814 31.816C86.462 31.816 86.1847 31.896 85.982 32.056C85.7793 32.216 85.678 32.424 85.678 32.68C85.678 32.84 85.7207 32.9787 85.806 33.096C85.8913 33.2133 86.0087 33.3093 86.158 33.384C86.318 33.4587 86.4993 33.528 86.702 33.592L88.094 34.008C88.8087 34.2213 89.358 34.5413 89.742 34.968C90.1367 35.3947 90.334 35.9173 90.334 36.536C90.334 37.0587 90.1953 37.5227 89.918 37.928C89.6407 38.3227 89.2567 38.632 88.766 38.856C88.2753 39.08 87.6993 39.192 87.038 39.192ZM96.0728 39.192C95.1768 39.192 94.3928 38.9893 93.7208 38.584C93.0488 38.1787 92.5261 37.6293 92.1528 36.936C91.7794 36.2427 91.5928 35.4747 91.5928 34.632C91.5928 33.7573 91.7794 32.984 92.1528 32.312C92.5368 31.6293 93.0541 31.0907 93.7048 30.696C94.3661 30.3013 95.1021 30.104 95.9128 30.104C96.5954 30.104 97.1928 30.216 97.7048 30.44C98.2274 30.664 98.6701 30.9733 99.0328 31.368C99.3954 31.7627 99.6728 32.216 99.8648 32.728C100.057 33.2293 100.153 33.7733 100.153 34.36C100.153 34.5093 100.142 34.664 100.121 34.824C100.11 34.984 100.083 35.1227 100.041 35.24H93.3207V33.64H98.8568L97.8648 34.392C97.9608 33.9013 97.9341 33.464 97.7848 33.08C97.6461 32.696 97.4114 32.392 97.0808 32.168C96.7608 31.944 96.3714 31.832 95.9128 31.832C95.4754 31.832 95.0861 31.944 94.7448 32.168C94.4034 32.3813 94.1421 32.7013 93.9608 33.128C93.7901 33.544 93.7261 34.0507 93.7688 34.648C93.7261 35.1813 93.7954 35.656 93.9768 36.072C94.1688 36.4773 94.4461 36.792 94.8088 37.016C95.1821 37.24 95.6088 37.352 96.0888 37.352C96.5688 37.352 96.9741 37.2507 97.3048 37.048C97.6461 36.8453 97.9128 36.5733 98.1048 36.232L99.8008 37.064C99.6301 37.48 99.3634 37.848 99.0008 38.168C98.6381 38.488 98.2061 38.7387 97.7048 38.92C97.2141 39.1013 96.6701 39.192 96.0728 39.192ZM107.801 39V33.72L103.785 27.08H106.265L109.337 32.264H108.457L111.513 27.08H113.993L109.993 33.704V39H107.801ZM117.935 39.192C117.082 39.192 116.303 38.9947 115.599 38.6C114.906 38.2053 114.351 37.6667 113.935 36.984C113.53 36.3013 113.327 35.5227 113.327 34.648C113.327 33.7733 113.53 32.9947 113.935 32.312C114.351 31.6293 114.906 31.0907 115.599 30.696C116.292 30.3013 117.071 30.104 117.935 30.104C118.788 30.104 119.562 30.3013 120.255 30.696C120.948 31.0907 121.498 31.6293 121.903 32.312C122.319 32.984 122.527 33.7627 122.527 34.648C122.527 35.5227 122.319 36.3013 121.903 36.984C121.487 37.6667 120.932 38.2053 120.239 38.6C119.546 38.9947 118.778 39.192 117.935 39.192ZM117.935 37.272C118.404 37.272 118.815 37.16 119.167 36.936C119.53 36.712 119.812 36.4027 120.015 36.008C120.228 35.6027 120.335 35.1493 120.335 34.648C120.335 34.136 120.228 33.688 120.015 33.304C119.812 32.9093 119.53 32.6 119.167 32.376C118.815 32.1413 118.404 32.024 117.935 32.024C117.455 32.024 117.034 32.1413 116.671 32.376C116.308 32.6 116.02 32.9093 115.807 33.304C115.604 33.688 115.503 34.136 115.503 34.648C115.503 35.1493 115.604 35.6027 115.807 36.008C116.02 36.4027 116.308 36.712 116.671 36.936C117.034 37.16 117.455 37.272 117.935 37.272ZM127.221 39.192C126.549 39.192 125.962 39.0427 125.461 38.744C124.97 38.4453 124.591 38.0293 124.325 37.496C124.069 36.9627 123.941 36.3387 123.941 35.624V30.296H126.037V35.448C126.037 35.8107 126.106 36.1307 126.245 36.408C126.394 36.6747 126.602 36.888 126.869 37.048C127.146 37.1973 127.455 37.272 127.797 37.272C128.138 37.272 128.442 37.1973 128.709 37.048C128.975 36.888 129.183 36.6693 129.333 36.392C129.482 36.1147 129.557 35.784 129.557 35.4V30.296H131.653V39H129.669V37.288L129.845 37.592C129.642 38.1253 129.306 38.5253 128.837 38.792C128.378 39.0587 127.839 39.192 127.221 39.192ZM133.601 39V30.296H135.569V32.232L135.409 31.944C135.612 31.2933 135.926 30.84 136.353 30.584C136.79 30.328 137.313 30.2 137.921 30.2H138.433V32.056H137.681C137.084 32.056 136.604 32.2427 136.241 32.616C135.878 32.9787 135.697 33.4907 135.697 34.152V39H133.601ZM142.605 39V27.08H144.781V37.08H149.885V39H142.605ZM155.245 39.192C154.349 39.192 153.565 38.9893 152.893 38.584C152.221 38.1787 151.698 37.6293 151.325 36.936C150.951 36.2427 150.765 35.4747 150.765 34.632C150.765 33.7573 150.951 32.984 151.325 32.312C151.709 31.6293 152.226 31.0907 152.877 30.696C153.538 30.3013 154.274 30.104 155.085 30.104C155.767 30.104 156.365 30.216 156.877 30.44C157.399 30.664 157.842 30.9733 158.205 31.368C158.567 31.7627 158.845 32.216 159.037 32.728C159.229 33.2293 159.325 33.7733 159.325 34.36C159.325 34.5093 159.314 34.664 159.293 34.824C159.282 34.984 159.255 35.1227 159.213 35.24H152.493V33.64H158.029L157.037 34.392C157.133 33.9013 157.106 33.464 156.957 33.08C156.818 32.696 156.583 32.392 156.253 32.168C155.933 31.944 155.543 31.832 155.085 31.832C154.647 31.832 154.258 31.944 153.917 32.168C153.575 32.3813 153.314 32.7013 153.133 33.128C152.962 33.544 152.898 34.0507 152.941 34.648C152.898 35.1813 152.967 35.656 153.149 36.072C153.341 36.4773 153.618 36.792 153.981 37.016C154.354 37.24 154.781 37.352 155.261 37.352C155.741 37.352 156.146 37.2507 156.477 37.048C156.818 36.8453 157.085 36.5733 157.277 36.232L158.973 37.064C158.802 37.48 158.535 37.848 158.173 38.168C157.81 38.488 157.378 38.7387 156.877 38.92C156.386 39.1013 155.842 39.192 155.245 39.192ZM160.914 39V30.296H162.882V32.008L162.722 31.704C162.924 31.1813 163.255 30.7867 163.714 30.52C164.183 30.2427 164.727 30.104 165.346 30.104C165.986 30.104 166.551 30.2427 167.042 30.52C167.543 30.7973 167.932 31.1867 168.21 31.688C168.487 32.1787 168.626 32.7493 168.626 33.4V39H166.53V33.896C166.53 33.512 166.455 33.1813 166.306 32.904C166.156 32.6267 165.948 32.4133 165.682 32.264C165.426 32.104 165.122 32.024 164.77 32.024C164.428 32.024 164.124 32.104 163.858 32.264C163.591 32.4133 163.383 32.6267 163.234 32.904C163.084 33.1813 163.01 33.512 163.01 33.896V39H160.914ZM173.71 39.192C172.782 39.192 171.971 38.9733 171.278 38.536C170.595 38.088 170.126 37.4853 169.87 36.728L171.438 35.976C171.662 36.4667 171.971 36.8507 172.366 37.128C172.771 37.4053 173.219 37.544 173.71 37.544C174.094 37.544 174.398 37.4587 174.622 37.288C174.846 37.1173 174.958 36.8933 174.958 36.616C174.958 36.4453 174.91 36.3067 174.814 36.2C174.729 36.0827 174.606 35.9867 174.446 35.912C174.297 35.8267 174.131 35.7573 173.95 35.704L172.526 35.304C171.79 35.0907 171.23 34.7653 170.846 34.328C170.473 33.8907 170.286 33.3733 170.286 32.776C170.286 32.2427 170.419 31.7787 170.686 31.384C170.963 30.9787 171.342 30.664 171.822 30.44C172.313 30.216 172.873 30.104 173.502 30.104C174.323 30.104 175.049 30.3013 175.678 30.696C176.307 31.0907 176.755 31.6453 177.022 32.36L175.422 33.112C175.273 32.7173 175.022 32.4027 174.67 32.168C174.318 31.9333 173.923 31.816 173.486 31.816C173.134 31.816 172.857 31.896 172.654 32.056C172.451 32.216 172.35 32.424 172.35 32.68C172.35 32.84 172.393 32.9787 172.478 33.096C172.563 33.2133 172.681 33.3093 172.83 33.384C172.99 33.4587 173.171 33.528 173.374 33.592L174.766 34.008C175.481 34.2213 176.03 34.5413 176.414 34.968C176.809 35.3947 177.006 35.9173 177.006 36.536C177.006 37.0587 176.867 37.5227 176.59 37.928C176.313 38.3227 175.929 38.632 175.438 38.856C174.947 39.08 174.371 39.192 173.71 39.192ZM182.745 39.192C181.849 39.192 181.065 38.9893 180.393 38.584C179.721 38.1787 179.198 37.6293 178.825 36.936C178.451 36.2427 178.265 35.4747 178.265 34.632C178.265 33.7573 178.451 32.984 178.825 32.312C179.209 31.6293 179.726 31.0907 180.377 30.696C181.038 30.3013 181.774 30.104 182.585 30.104C183.267 30.104 183.865 30.216 184.377 30.44C184.899 30.664 185.342 30.9733 185.705 31.368C186.067 31.7627 186.345 32.216 186.537 32.728C186.729 33.2293 186.825 33.7733 186.825 34.36C186.825 34.5093 186.814 34.664 186.793 34.824C186.782 34.984 186.755 35.1227 186.713 35.24H179.993V33.64H185.529L184.537 34.392C184.633 33.9013 184.606 33.464 184.457 33.08C184.318 32.696 184.083 32.392 183.753 32.168C183.433 31.944 183.043 31.832 182.585 31.832C182.147 31.832 181.758 31.944 181.417 32.168C181.075 32.3813 180.814 32.7013 180.633 33.128C180.462 33.544 180.398 34.0507 180.441 34.648C180.398 35.1813 180.467 35.656 180.649 36.072C180.841 36.4773 181.118 36.792 181.481 37.016C181.854 37.24 182.281 37.352 182.761 37.352C183.241 37.352 183.646 37.2507 183.977 37.048C184.318 36.8453 184.585 36.5733 184.777 36.232L186.473 37.064C186.302 37.48 186.035 37.848 185.673 38.168C185.31 38.488 184.878 38.7387 184.377 38.92C183.886 39.1013 183.342 39.192 182.745 39.192ZM191.726 39.192C190.798 39.192 189.987 38.9733 189.294 38.536C188.611 38.088 188.142 37.4853 187.886 36.728L189.454 35.976C189.678 36.4667 189.987 36.8507 190.382 37.128C190.787 37.4053 191.235 37.544 191.726 37.544C192.11 37.544 192.414 37.4587 192.638 37.288C192.862 37.1173 192.974 36.8933 192.974 36.616C192.974 36.4453 192.926 36.3067 192.83 36.2C192.744 36.0827 192.622 35.9867 192.462 35.912C192.312 35.8267 192.147 35.7573 191.966 35.704L190.542 35.304C189.806 35.0907 189.246 34.7653 188.862 34.328C188.488 33.8907 188.302 33.3733 188.302 32.776C188.302 32.2427 188.435 31.7787 188.702 31.384C188.979 30.9787 189.358 30.664 189.838 30.44C190.328 30.216 190.888 30.104 191.518 30.104C192.339 30.104 193.064 30.3013 193.694 30.696C194.323 31.0907 194.771 31.6453 195.038 32.36L193.438 33.112C193.288 32.7173 193.038 32.4027 192.686 32.168C192.334 31.9333 191.939 31.816 191.502 31.816C191.15 31.816 190.872 31.896 190.67 32.056C190.467 32.216 190.366 32.424 190.366 32.68C190.366 32.84 190.408 32.9787 190.494 33.096C190.579 33.2133 190.696 33.3093 190.846 33.384C191.006 33.4587 191.187 33.528 191.39 33.592L192.782 34.008C193.496 34.2213 194.046 34.5413 194.43 34.968C194.824 35.3947 195.022 35.9173 195.022 36.536C195.022 37.0587 194.883 37.5227 194.606 37.928C194.328 38.3227 193.944 38.632 193.454 38.856C192.963 39.08 192.387 39.192 191.726 39.192Z" fill="#F3E9E2"/>
<path d="M44.068 59.144C43.5 59.144 42.98 59.04 42.508 58.832C42.036 58.616 41.636 58.324 41.308 57.956C40.98 57.588 40.744 57.176 40.6 56.72L41.62 56.3C41.836 56.876 42.156 57.32 42.58 57.632C43.012 57.936 43.516 58.088 44.092 58.088C44.444 58.088 44.752 58.032 45.016 57.92C45.28 57.808 45.484 57.652 45.628 57.452C45.78 57.244 45.856 57.004 45.856 56.732C45.856 56.356 45.748 56.06 45.532 55.844C45.324 55.62 45.016 55.452 44.608 55.34L42.964 54.836C42.316 54.636 41.82 54.32 41.476 53.888C41.132 53.456 40.96 52.96 40.96 52.4C40.96 51.912 41.076 51.484 41.308 51.116C41.548 50.74 41.876 50.448 42.292 50.24C42.716 50.024 43.196 49.916 43.732 49.916C44.268 49.916 44.752 50.012 45.184 50.204C45.624 50.396 45.996 50.656 46.3 50.984C46.604 51.304 46.828 51.672 46.972 52.088L45.964 52.508C45.772 52.004 45.484 51.624 45.1 51.368C44.716 51.104 44.264 50.972 43.744 50.972C43.424 50.972 43.14 51.028 42.892 51.14C42.652 51.244 42.464 51.4 42.328 51.608C42.2 51.808 42.136 52.048 42.136 52.328C42.136 52.656 42.24 52.948 42.448 53.204C42.656 53.46 42.972 53.656 43.396 53.792L44.896 54.236C45.6 54.452 46.132 54.76 46.492 55.16C46.852 55.56 47.032 56.056 47.032 56.648C47.032 57.136 46.904 57.568 46.648 57.944C46.4 58.32 46.052 58.616 45.604 58.832C45.164 59.04 44.652 59.144 44.068 59.144ZM51.5978 59.144C50.9738 59.144 50.4178 58.996 49.9298 58.7C49.4418 58.404 49.0578 58 48.7778 57.488C48.4978 56.968 48.3578 56.388 48.3578 55.748C48.3578 55.1 48.4938 54.524 48.7658 54.02C49.0458 53.516 49.4218 53.12 49.8938 52.832C50.3738 52.536 50.9098 52.388 51.5018 52.388C51.9818 52.388 52.4058 52.476 52.7738 52.652C53.1498 52.82 53.4658 53.052 53.7218 53.348C53.9858 53.636 54.1858 53.968 54.3218 54.344C54.4658 54.712 54.5378 55.096 54.5378 55.496C54.5378 55.584 54.5298 55.684 54.5138 55.796C54.5058 55.9 54.4938 56 54.4778 56.096H49.1738V55.136H53.8298L53.3018 55.568C53.3738 55.152 53.3338 54.78 53.1818 54.452C53.0298 54.124 52.8058 53.864 52.5098 53.672C52.2138 53.48 51.8778 53.384 51.5018 53.384C51.1258 53.384 50.7818 53.48 50.4698 53.672C50.1578 53.864 49.9138 54.14 49.7378 54.5C49.5698 54.852 49.5018 55.272 49.5338 55.76C49.5018 56.232 49.5738 56.648 49.7498 57.008C49.9338 57.36 50.1898 57.636 50.5178 57.836C50.8538 58.028 51.2178 58.124 51.6098 58.124C52.0418 58.124 52.4058 58.024 52.7018 57.824C52.9978 57.624 53.2378 57.368 53.4218 57.056L54.3578 57.536C54.2298 57.832 54.0298 58.104 53.7578 58.352C53.4938 58.592 53.1778 58.784 52.8098 58.928C52.4498 59.072 52.0458 59.144 51.5978 59.144ZM55.9929 59V49.916H57.1089V59H55.9929ZM61.8166 59.144C61.1926 59.144 60.6366 58.996 60.1486 58.7C59.6606 58.404 59.2766 58 58.9966 57.488C58.7166 56.968 58.5766 56.388 58.5766 55.748C58.5766 55.1 58.7126 54.524 58.9846 54.02C59.2646 53.516 59.6406 53.12 60.1126 52.832C60.5926 52.536 61.1286 52.388 61.7206 52.388C62.2006 52.388 62.6246 52.476 62.9926 52.652C63.3686 52.82 63.6846 53.052 63.9406 53.348C64.2046 53.636 64.4046 53.968 64.5406 54.344C64.6846 54.712 64.7566 55.096 64.7566 55.496C64.7566 55.584 64.7486 55.684 64.7326 55.796C64.7246 55.9 64.7126 56 64.6966 56.096H59.3926V55.136H64.0486L63.5206 55.568C63.5926 55.152 63.5526 54.78 63.4006 54.452C63.2486 54.124 63.0246 53.864 62.7286 53.672C62.4326 53.48 62.0966 53.384 61.7206 53.384C61.3446 53.384 61.0006 53.48 60.6886 53.672C60.3766 53.864 60.1326 54.14 59.9566 54.5C59.7886 54.852 59.7206 55.272 59.7526 55.76C59.7206 56.232 59.7926 56.648 59.9686 57.008C60.1526 57.36 60.4086 57.636 60.7366 57.836C61.0726 58.028 61.4366 58.124 61.8286 58.124C62.2606 58.124 62.6246 58.024 62.9206 57.824C63.2166 57.624 63.4566 57.368 63.6406 57.056L64.5766 57.536C64.4486 57.832 64.2486 58.104 63.9766 58.352C63.7126 58.592 63.3966 58.784 63.0286 58.928C62.6686 59.072 62.2646 59.144 61.8166 59.144ZM69.2117 59.144C68.5797 59.144 68.0157 58.996 67.5197 58.7C67.0317 58.404 66.6477 58 66.3677 57.488C66.0877 56.976 65.9477 56.4 65.9477 55.76C65.9477 55.112 66.0877 54.536 66.3677 54.032C66.6477 53.528 67.0317 53.128 67.5197 52.832C68.0157 52.536 68.5797 52.388 69.2117 52.388C69.6357 52.388 70.0317 52.464 70.3997 52.616C70.7677 52.768 71.0917 52.972 71.3717 53.228C71.6517 53.484 71.8557 53.784 71.9837 54.128L70.9877 54.608C70.8357 54.272 70.6037 54 70.2917 53.792C69.9797 53.576 69.6197 53.468 69.2117 53.468C68.8197 53.468 68.4637 53.568 68.1437 53.768C67.8317 53.968 67.5837 54.24 67.3997 54.584C67.2157 54.928 67.1237 55.324 67.1237 55.772C67.1237 56.204 67.2157 56.596 67.3997 56.948C67.5837 57.292 67.8317 57.564 68.1437 57.764C68.4637 57.964 68.8197 58.064 69.2117 58.064C69.6197 58.064 69.9797 57.96 70.2917 57.752C70.6037 57.536 70.8357 57.252 70.9877 56.9L71.9837 57.404C71.8557 57.74 71.6517 58.04 71.3717 58.304C71.0917 58.56 70.7677 58.764 70.3997 58.916C70.0317 59.068 69.6357 59.144 69.2117 59.144ZM76.0701 59.072C75.4381 59.072 74.9501 58.892 74.6061 58.532C74.2701 58.172 74.1021 57.664 74.1021 57.008V53.6H72.9261V52.532H73.1661C73.4541 52.532 73.6821 52.444 73.8501 52.268C74.0181 52.092 74.1021 51.86 74.1021 51.572V51.044H75.2181V52.532H76.6701V53.6H75.2181V56.972C75.2181 57.188 75.2501 57.376 75.3141 57.536C75.3861 57.696 75.5021 57.824 75.6621 57.92C75.8221 58.008 76.0341 58.052 76.2981 58.052C76.3541 58.052 76.4221 58.048 76.5021 58.04C76.5901 58.032 76.6701 58.024 76.7421 58.016V59C76.6381 59.024 76.5221 59.04 76.3941 59.048C76.2661 59.064 76.1581 59.072 76.0701 59.072ZM82.9022 59.072C82.2702 59.072 81.7822 58.892 81.4382 58.532C81.1022 58.172 80.9342 57.664 80.9342 57.008V53.6H79.7582V52.532H79.9982C80.2862 52.532 80.5142 52.444 80.6822 52.268C80.8502 52.092 80.9342 51.86 80.9342 51.572V51.044H82.0502V52.532H83.5022V53.6H82.0502V56.972C82.0502 57.188 82.0822 57.376 82.1462 57.536C82.2182 57.696 82.3342 57.824 82.4942 57.92C82.6542 58.008 82.8662 58.052 83.1302 58.052C83.1862 58.052 83.2542 58.048 83.3342 58.04C83.4222 58.032 83.5022 58.024 83.5742 58.016V59C83.4702 59.024 83.3542 59.04 83.2262 59.048C83.0982 59.064 82.9902 59.072 82.9022 59.072ZM85.032 59V49.916H86.148V53.792L85.944 53.684C86.104 53.276 86.36 52.96 86.712 52.736C87.072 52.504 87.492 52.388 87.972 52.388C88.436 52.388 88.848 52.492 89.208 52.7C89.576 52.908 89.864 53.196 90.072 53.564C90.288 53.932 90.396 54.348 90.396 54.812V59H89.268V55.172C89.268 54.812 89.2 54.508 89.064 54.26C88.936 54.012 88.756 53.82 88.524 53.684C88.292 53.54 88.024 53.468 87.72 53.468C87.424 53.468 87.156 53.54 86.916 53.684C86.676 53.82 86.488 54.016 86.352 54.272C86.216 54.52 86.148 54.82 86.148 55.172V59H85.032ZM94.9689 59.144C94.3449 59.144 93.7889 58.996 93.3009 58.7C92.8129 58.404 92.4289 58 92.1489 57.488C91.8689 56.968 91.7289 56.388 91.7289 55.748C91.7289 55.1 91.8649 54.524 92.1369 54.02C92.4169 53.516 92.7929 53.12 93.2649 52.832C93.7449 52.536 94.2809 52.388 94.8729 52.388C95.3529 52.388 95.7769 52.476 96.1449 52.652C96.5209 52.82 96.8369 53.052 97.0929 53.348C97.3569 53.636 97.5569 53.968 97.6929 54.344C97.8369 54.712 97.9089 55.096 97.9089 55.496C97.9089 55.584 97.9009 55.684 97.8849 55.796C97.8769 55.9 97.8649 56 97.8489 56.096H92.5449V55.136H97.2009L96.6729 55.568C96.7449 55.152 96.7049 54.78 96.5529 54.452C96.4009 54.124 96.1769 53.864 95.8809 53.672C95.5849 53.48 95.2489 53.384 94.8729 53.384C94.4969 53.384 94.1529 53.48 93.8409 53.672C93.5289 53.864 93.2849 54.14 93.1089 54.5C92.9409 54.852 92.8729 55.272 92.9049 55.76C92.8729 56.232 92.9449 56.648 93.1209 57.008C93.3049 57.36 93.5609 57.636 93.8889 57.836C94.2249 58.028 94.5889 58.124 94.9809 58.124C95.4129 58.124 95.7769 58.024 96.0729 57.824C96.3689 57.624 96.6089 57.368 96.7929 57.056L97.7289 57.536C97.6009 57.832 97.4009 58.104 97.1289 58.352C96.8649 58.592 96.5489 58.784 96.1809 58.928C95.8209 59.072 95.4169 59.144 94.9689 59.144ZM101.438 59V49.916H102.554V59H101.438ZM107.262 59.144C106.638 59.144 106.082 58.996 105.594 58.7C105.106 58.404 104.722 58 104.442 57.488C104.162 56.968 104.022 56.388 104.022 55.748C104.022 55.1 104.158 54.524 104.43 54.02C104.71 53.516 105.086 53.12 105.558 52.832C106.038 52.536 106.574 52.388 107.166 52.388C107.646 52.388 108.07 52.476 108.438 52.652C108.814 52.82 109.13 53.052 109.386 53.348C109.65 53.636 109.85 53.968 109.986 54.344C110.13 54.712 110.202 55.096 110.202 55.496C110.202 55.584 110.194 55.684 110.178 55.796C110.17 55.9 110.158 56 110.142 56.096H104.838V55.136H109.494L108.966 55.568C109.038 55.152 108.998 54.78 108.846 54.452C108.694 54.124 108.47 53.864 108.174 53.672C107.878 53.48 107.542 53.384 107.166 53.384C106.79 53.384 106.446 53.48 106.134 53.672C105.822 53.864 105.578 54.14 105.402 54.5C105.234 54.852 105.166 55.272 105.198 55.76C105.166 56.232 105.238 56.648 105.414 57.008C105.598 57.36 105.854 57.636 106.182 57.836C106.518 58.028 106.882 58.124 107.274 58.124C107.706 58.124 108.07 58.024 108.366 57.824C108.662 57.624 108.902 57.368 109.086 57.056L110.022 57.536C109.894 57.832 109.694 58.104 109.422 58.352C109.158 58.592 108.842 58.784 108.474 58.928C108.114 59.072 107.71 59.144 107.262 59.144ZM111.657 59V52.532H112.749V53.792L112.569 53.684C112.729 53.276 112.985 52.96 113.337 52.736C113.697 52.504 114.117 52.388 114.597 52.388C115.061 52.388 115.473 52.492 115.833 52.7C116.201 52.908 116.489 53.196 116.697 53.564C116.913 53.932 117.021 54.348 117.021 54.812V59H115.893V55.172C115.893 54.812 115.829 54.508 115.701 54.26C115.573 54.012 115.389 53.82 115.149 53.684C114.917 53.54 114.649 53.468 114.345 53.468C114.041 53.468 113.769 53.54 113.529 53.684C113.297 53.82 113.113 54.016 112.977 54.272C112.841 54.52 112.773 54.82 112.773 55.172V59H111.657ZM120.934 59.144C120.286 59.144 119.722 58.984 119.242 58.664C118.762 58.344 118.422 57.912 118.222 57.368L119.11 56.936C119.294 57.32 119.546 57.624 119.866 57.848C120.186 58.072 120.542 58.184 120.934 58.184C121.286 58.184 121.578 58.1 121.81 57.932C122.042 57.764 122.158 57.544 122.158 57.272C122.158 57.08 122.102 56.928 121.99 56.816C121.886 56.696 121.758 56.604 121.606 56.54C121.454 56.468 121.314 56.416 121.186 56.384L120.214 56.108C119.63 55.94 119.202 55.7 118.93 55.388C118.666 55.076 118.534 54.712 118.534 54.296C118.534 53.912 118.63 53.58 118.822 53.3C119.022 53.012 119.29 52.788 119.626 52.628C119.97 52.468 120.354 52.388 120.778 52.388C121.346 52.388 121.854 52.532 122.302 52.82C122.758 53.108 123.082 53.512 123.274 54.032L122.362 54.452C122.218 54.116 122.002 53.852 121.714 53.66C121.426 53.46 121.102 53.36 120.742 53.36C120.414 53.36 120.154 53.444 119.962 53.612C119.77 53.772 119.674 53.976 119.674 54.224C119.674 54.408 119.722 54.56 119.818 54.68C119.914 54.792 120.03 54.88 120.166 54.944C120.302 55 120.434 55.048 120.562 55.088L121.618 55.4C122.146 55.552 122.554 55.788 122.842 56.108C123.138 56.428 123.286 56.812 123.286 57.26C123.286 57.62 123.186 57.944 122.986 58.232C122.786 58.52 122.51 58.744 122.158 58.904C121.806 59.064 121.398 59.144 120.934 59.144ZM127.723 59.144C127.099 59.144 126.543 58.996 126.055 58.7C125.567 58.404 125.183 58 124.903 57.488C124.623 56.968 124.483 56.388 124.483 55.748C124.483 55.1 124.619 54.524 124.891 54.02C125.171 53.516 125.547 53.12 126.019 52.832C126.499 52.536 127.035 52.388 127.627 52.388C128.107 52.388 128.531 52.476 128.899 52.652C129.275 52.82 129.591 53.052 129.847 53.348C130.111 53.636 130.311 53.968 130.447 54.344C130.591 54.712 130.663 55.096 130.663 55.496C130.663 55.584 130.655 55.684 130.639 55.796C130.631 55.9 130.619 56 130.603 56.096H125.299V55.136H129.955L129.427 55.568C129.499 55.152 129.459 54.78 129.307 54.452C129.155 54.124 128.931 53.864 128.635 53.672C128.339 53.48 128.003 53.384 127.627 53.384C127.251 53.384 126.907 53.48 126.595 53.672C126.283 53.864 126.039 54.14 125.863 54.5C125.695 54.852 125.627 55.272 125.659 55.76C125.627 56.232 125.699 56.648 125.875 57.008C126.059 57.36 126.315 57.636 126.643 57.836C126.979 58.028 127.343 58.124 127.735 58.124C128.167 58.124 128.531 58.024 128.827 57.824C129.123 57.624 129.363 57.368 129.547 57.056L130.483 57.536C130.355 57.832 130.155 58.104 129.883 58.352C129.619 58.592 129.303 58.784 128.935 58.928C128.575 59.072 128.171 59.144 127.723 59.144ZM134.434 59.144C133.786 59.144 133.222 58.984 132.742 58.664C132.262 58.344 131.922 57.912 131.722 57.368L132.61 56.936C132.794 57.32 133.046 57.624 133.366 57.848C133.686 58.072 134.042 58.184 134.434 58.184C134.786 58.184 135.078 58.1 135.31 57.932C135.542 57.764 135.658 57.544 135.658 57.272C135.658 57.08 135.602 56.928 135.49 56.816C135.386 56.696 135.258 56.604 135.106 56.54C134.954 56.468 134.814 56.416 134.686 56.384L133.714 56.108C133.13 55.94 132.702 55.7 132.43 55.388C132.166 55.076 132.034 54.712 132.034 54.296C132.034 53.912 132.13 53.58 132.322 53.3C132.522 53.012 132.79 52.788 133.126 52.628C133.47 52.468 133.854 52.388 134.278 52.388C134.846 52.388 135.354 52.532 135.802 52.82C136.258 53.108 136.582 53.512 136.774 54.032L135.862 54.452C135.718 54.116 135.502 53.852 135.214 53.66C134.926 53.46 134.602 53.36 134.242 53.36C133.914 53.36 133.654 53.444 133.462 53.612C133.27 53.772 133.174 53.976 133.174 54.224C133.174 54.408 133.222 54.56 133.318 54.68C133.414 54.792 133.53 54.88 133.666 54.944C133.802 55 133.934 55.048 134.062 55.088L135.118 55.4C135.646 55.552 136.054 55.788 136.342 56.108C136.638 56.428 136.786 56.812 136.786 57.26C136.786 57.62 136.686 57.944 136.486 58.232C136.286 58.52 136.01 58.744 135.658 58.904C135.306 59.064 134.898 59.144 134.434 59.144ZM140.669 61.64C140.525 61.64 140.381 61.628 140.237 61.604C140.093 61.58 139.957 61.54 139.829 61.484V60.488C139.917 60.504 140.025 60.52 140.153 60.536C140.289 60.56 140.421 60.572 140.549 60.572C140.925 60.572 141.209 60.488 141.401 60.32C141.601 60.16 141.789 59.88 141.965 59.48L142.373 58.508L142.349 59.48L139.589 52.532H140.801L142.949 58.052H142.589L144.725 52.532H145.961L143.045 59.768C142.909 60.112 142.733 60.424 142.517 60.704C142.309 60.992 142.053 61.22 141.749 61.388C141.445 61.556 141.085 61.64 140.669 61.64ZM149.909 59.144C149.285 59.144 148.721 59 148.217 58.712C147.713 58.416 147.313 58.012 147.017 57.5C146.721 56.988 146.573 56.408 146.573 55.76C146.573 55.112 146.717 54.536 147.005 54.032C147.301 53.528 147.701 53.128 148.205 52.832C148.709 52.536 149.277 52.388 149.909 52.388C150.533 52.388 151.097 52.536 151.601 52.832C152.105 53.12 152.501 53.516 152.789 54.02C153.085 54.524 153.233 55.104 153.233 55.76C153.233 56.416 153.081 57 152.777 57.512C152.473 58.016 152.069 58.416 151.565 58.712C151.069 59 150.517 59.144 149.909 59.144ZM149.909 58.064C150.309 58.064 150.669 57.964 150.989 57.764C151.317 57.564 151.573 57.288 151.757 56.936C151.949 56.584 152.045 56.192 152.045 55.76C152.045 55.32 151.949 54.932 151.757 54.596C151.573 54.252 151.317 53.98 150.989 53.78C150.669 53.572 150.309 53.468 149.909 53.468C149.501 53.468 149.133 53.572 148.805 53.78C148.485 53.98 148.229 54.252 148.037 54.596C147.845 54.932 147.749 55.32 147.749 55.76C147.749 56.192 147.845 56.584 148.037 56.936C148.229 57.288 148.485 57.564 148.805 57.764C149.133 57.964 149.501 58.064 149.909 58.064ZM156.98 59.144C156.516 59.144 156.096 59.036 155.72 58.82C155.352 58.604 155.064 58.304 154.856 57.92C154.656 57.528 154.556 57.08 154.556 56.576V52.532H155.672V56.456C155.672 56.776 155.736 57.056 155.864 57.296C156 57.536 156.184 57.724 156.416 57.86C156.656 57.996 156.928 58.064 157.232 58.064C157.536 58.064 157.804 57.996 158.036 57.86C158.276 57.724 158.46 57.528 158.588 57.272C158.724 57.016 158.792 56.712 158.792 56.36V52.532H159.92V59H158.828V57.74L159.008 57.848C158.856 58.256 158.596 58.576 158.228 58.808C157.868 59.032 157.452 59.144 156.98 59.144ZM161.997 52.94L161.829 50.06H162.933L162.777 52.94H161.997ZM167.788 59.144C167.18 59.144 166.632 58.996 166.144 58.7C165.664 58.404 165.284 58 165.004 57.488C164.724 56.976 164.584 56.404 164.584 55.772C164.584 55.124 164.724 54.548 165.004 54.044C165.284 53.532 165.664 53.128 166.144 52.832C166.632 52.536 167.18 52.388 167.788 52.388C168.324 52.388 168.8 52.504 169.216 52.736C169.632 52.96 169.96 53.264 170.2 53.648L170.02 53.924V49.916H171.148V59H170.056V57.62L170.2 57.812C169.976 58.236 169.648 58.564 169.216 58.796C168.792 59.028 168.316 59.144 167.788 59.144ZM167.884 58.064C168.292 58.064 168.656 57.964 168.976 57.764C169.296 57.564 169.548 57.292 169.732 56.948C169.924 56.596 170.02 56.204 170.02 55.772C170.02 55.332 169.924 54.94 169.732 54.596C169.548 54.244 169.296 53.968 168.976 53.768C168.656 53.568 168.292 53.468 167.884 53.468C167.484 53.468 167.12 53.572 166.792 53.78C166.472 53.98 166.22 54.252 166.036 54.596C165.852 54.932 165.76 55.324 165.76 55.772C165.76 56.204 165.852 56.596 166.036 56.948C166.22 57.292 166.472 57.564 166.792 57.764C167.112 57.964 167.476 58.064 167.884 58.064ZM174.95 59V49.916H176.066V59H174.95ZM177.798 59V52.532H178.914V59H177.798ZM177.798 51.5V50.06H178.914V51.5H177.798ZM180.645 59V49.916H181.761V56.144L181.305 56.036L184.737 52.532H186.165L183.681 55.136L186.333 59H185.013L182.589 55.496L183.285 55.46L181.401 57.428L181.761 56.612V59H180.645ZM190.195 59.144C189.571 59.144 189.015 58.996 188.527 58.7C188.039 58.404 187.655 58 187.375 57.488C187.095 56.968 186.955 56.388 186.955 55.748C186.955 55.1 187.091 54.524 187.363 54.02C187.643 53.516 188.019 53.12 188.491 52.832C188.971 52.536 189.507 52.388 190.099 52.388C190.579 52.388 191.003 52.476 191.371 52.652C191.747 52.82 192.063 53.052 192.319 53.348C192.583 53.636 192.783 53.968 192.919 54.344C193.063 54.712 193.135 55.096 193.135 55.496C193.135 55.584 193.127 55.684 193.111 55.796C193.103 55.9 193.091 56 193.075 56.096H187.771V55.136H192.427L191.899 55.568C191.971 55.152 191.931 54.78 191.779 54.452C191.627 54.124 191.403 53.864 191.107 53.672C190.811 53.48 190.475 53.384 190.099 53.384C189.723 53.384 189.379 53.48 189.067 53.672C188.755 53.864 188.511 54.14 188.335 54.5C188.167 54.852 188.099 55.272 188.131 55.76C188.099 56.232 188.171 56.648 188.347 57.008C188.531 57.36 188.787 57.636 189.115 57.836C189.451 58.028 189.815 58.124 190.207 58.124C190.639 58.124 191.003 58.024 191.299 57.824C191.595 57.624 191.835 57.368 192.019 57.056L192.955 57.536C192.827 57.832 192.627 58.104 192.355 58.352C192.091 58.592 191.775 58.784 191.407 58.928C191.047 59.072 190.643 59.144 190.195 59.144ZM199.293 59.072C198.661 59.072 198.173 58.892 197.829 58.532C197.493 58.172 197.325 57.664 197.325 57.008V53.6H196.149V52.532H196.389C196.677 52.532 196.905 52.444 197.073 52.268C197.241 52.092 197.325 51.86 197.325 51.572V51.044H198.441V52.532H199.893V53.6H198.441V56.972C198.441 57.188 198.473 57.376 198.537 57.536C198.609 57.696 198.725 57.824 198.885 57.92C199.045 58.008 199.257 58.052 199.521 58.052C199.577 58.052 199.645 58.048 199.725 58.04C199.813 58.032 199.893 58.024 199.965 58.016V59C199.861 59.024 199.745 59.04 199.617 59.048C199.489 59.064 199.381 59.072 199.293 59.072ZM204.319 59.144C203.695 59.144 203.131 59 202.627 58.712C202.123 58.416 201.723 58.012 201.427 57.5C201.131 56.988 200.983 56.408 200.983 55.76C200.983 55.112 201.127 54.536 201.415 54.032C201.711 53.528 202.111 53.128 202.615 52.832C203.119 52.536 203.687 52.388 204.319 52.388C204.943 52.388 205.507 52.536 206.011 52.832C206.515 53.12 206.911 53.516 207.199 54.02C207.495 54.524 207.643 55.104 207.643 55.76C207.643 56.416 207.491 57 207.187 57.512C206.883 58.016 206.479 58.416 205.975 58.712C205.479 59 204.927 59.144 204.319 59.144ZM204.319 58.064C204.719 58.064 205.079 57.964 205.399 57.764C205.727 57.564 205.983 57.288 206.167 56.936C206.359 56.584 206.455 56.192 206.455 55.76C206.455 55.32 206.359 54.932 206.167 54.596C205.983 54.252 205.727 53.98 205.399 53.78C205.079 53.572 204.719 53.468 204.319 53.468C203.911 53.468 203.543 53.572 203.215 53.78C202.895 53.98 202.639 54.252 202.447 54.596C202.255 54.932 202.159 55.32 202.159 55.76C202.159 56.192 202.255 56.584 202.447 56.936C202.639 57.288 202.895 57.564 203.215 57.764C203.543 57.964 203.911 58.064 204.319 58.064ZM211.173 59V52.532H212.265V53.72L212.145 53.552C212.297 53.184 212.529 52.912 212.841 52.736C213.153 52.552 213.533 52.46 213.981 52.46H214.377V53.516H213.813C213.357 53.516 212.989 53.66 212.709 53.948C212.429 54.228 212.289 54.628 212.289 55.148V59H211.173ZM218.344 59.144C217.72 59.144 217.164 58.996 216.676 58.7C216.188 58.404 215.804 58 215.524 57.488C215.244 56.968 215.104 56.388 215.104 55.748C215.104 55.1 215.24 54.524 215.512 54.02C215.792 53.516 216.168 53.12 216.64 52.832C217.12 52.536 217.656 52.388 218.248 52.388C218.728 52.388 219.152 52.476 219.52 52.652C219.896 52.82 220.212 53.052 220.468 53.348C220.732 53.636 220.932 53.968 221.068 54.344C221.212 54.712 221.284 55.096 221.284 55.496C221.284 55.584 221.276 55.684 221.26 55.796C221.252 55.9 221.24 56 221.224 56.096H215.92V55.136H220.576L220.048 55.568C220.12 55.152 220.08 54.78 219.928 54.452C219.776 54.124 219.552 53.864 219.256 53.672C218.96 53.48 218.624 53.384 218.248 53.384C217.872 53.384 217.528 53.48 217.216 53.672C216.904 53.864 216.66 54.14 216.484 54.5C216.316 54.852 216.248 55.272 216.28 55.76C216.248 56.232 216.32 56.648 216.496 57.008C216.68 57.36 216.936 57.636 217.264 57.836C217.6 58.028 217.964 58.124 218.356 58.124C218.788 58.124 219.152 58.024 219.448 57.824C219.744 57.624 219.984 57.368 220.168 57.056L221.104 57.536C220.976 57.832 220.776 58.104 220.504 58.352C220.24 58.592 219.924 58.784 219.556 58.928C219.196 59.072 218.792 59.144 218.344 59.144ZM222.739 61.4V52.532H223.831V53.924L223.687 53.648C223.927 53.264 224.255 52.96 224.671 52.736C225.087 52.504 225.563 52.388 226.099 52.388C226.707 52.388 227.251 52.536 227.731 52.832C228.219 53.128 228.603 53.532 228.883 54.044C229.163 54.548 229.303 55.124 229.303 55.772C229.303 56.404 229.163 56.976 228.883 57.488C228.603 58 228.219 58.404 227.731 58.7C227.251 58.996 226.703 59.144 226.087 59.144C225.567 59.144 225.091 59.028 224.659 58.796C224.235 58.564 223.907 58.236 223.675 57.812L223.855 57.62V61.4H222.739ZM226.003 58.064C226.411 58.064 226.775 57.964 227.095 57.764C227.415 57.564 227.663 57.292 227.839 56.948C228.023 56.596 228.115 56.204 228.115 55.772C228.115 55.324 228.023 54.932 227.839 54.596C227.663 54.252 227.415 53.98 227.095 53.78C226.775 53.572 226.411 53.468 226.003 53.468C225.595 53.468 225.227 53.568 224.899 53.768C224.579 53.968 224.323 54.244 224.131 54.596C223.947 54.94 223.855 55.332 223.855 55.772C223.855 56.204 223.947 56.596 224.131 56.948C224.323 57.292 224.579 57.564 224.899 57.764C225.227 57.964 225.595 58.064 226.003 58.064ZM230.766 59V49.916H231.882V59H230.766ZM235.51 59.144C235.086 59.144 234.71 59.068 234.382 58.916C234.062 58.756 233.81 58.54 233.626 58.268C233.442 57.988 233.35 57.668 233.35 57.308C233.35 56.964 233.422 56.656 233.566 56.384C233.718 56.104 233.95 55.868 234.262 55.676C234.582 55.484 234.982 55.348 235.462 55.268L237.862 54.872V55.808L235.714 56.168C235.298 56.24 234.994 56.372 234.802 56.564C234.618 56.756 234.526 56.992 234.526 57.272C234.526 57.536 234.63 57.756 234.838 57.932C235.054 58.108 235.322 58.196 235.642 58.196C236.05 58.196 236.402 58.112 236.698 57.944C237.002 57.768 237.238 57.532 237.406 57.236C237.582 56.94 237.67 56.612 237.67 56.252V54.608C237.67 54.256 237.538 53.972 237.274 53.756C237.018 53.532 236.678 53.42 236.254 53.42C235.886 53.42 235.558 53.516 235.27 53.708C234.99 53.892 234.782 54.14 234.646 54.452L233.674 53.948C233.794 53.652 233.986 53.388 234.25 53.156C234.514 52.916 234.822 52.728 235.174 52.592C235.526 52.456 235.894 52.388 236.278 52.388C236.774 52.388 237.21 52.484 237.586 52.676C237.962 52.86 238.254 53.12 238.462 53.456C238.678 53.784 238.786 54.168 238.786 54.608V59H237.694V57.776L237.898 57.848C237.762 58.104 237.578 58.328 237.346 58.52C237.114 58.712 236.842 58.864 236.53 58.976C236.218 59.088 235.878 59.144 235.51 59.144ZM243.516 59.144C242.884 59.144 242.32 58.996 241.824 58.7C241.336 58.404 240.952 58 240.672 57.488C240.392 56.976 240.252 56.4 240.252 55.76C240.252 55.112 240.392 54.536 240.672 54.032C240.952 53.528 241.336 53.128 241.824 52.832C242.32 52.536 242.884 52.388 243.516 52.388C243.94 52.388 244.336 52.464 244.704 52.616C245.072 52.768 245.396 52.972 245.676 53.228C245.956 53.484 246.16 53.784 246.288 54.128L245.292 54.608C245.14 54.272 244.908 54 244.596 53.792C244.284 53.576 243.924 53.468 243.516 53.468C243.124 53.468 242.768 53.568 242.448 53.768C242.136 53.968 241.888 54.24 241.704 54.584C241.52 54.928 241.428 55.324 241.428 55.772C241.428 56.204 241.52 56.596 241.704 56.948C241.888 57.292 242.136 57.564 242.448 57.764C242.768 57.964 243.124 58.064 243.516 58.064C243.924 58.064 244.284 57.96 244.596 57.752C244.908 57.536 245.14 57.252 245.292 56.9L246.288 57.404C246.16 57.74 245.956 58.04 245.676 58.304C245.396 58.56 245.072 58.764 244.704 58.916C244.336 59.068 243.94 59.144 243.516 59.144ZM250.723 59.144C250.099 59.144 249.543 58.996 249.055 58.7C248.567 58.404 248.183 58 247.903 57.488C247.623 56.968 247.483 56.388 247.483 55.748C247.483 55.1 247.619 54.524 247.891 54.02C248.171 53.516 248.547 53.12 249.019 52.832C249.499 52.536 250.035 52.388 250.627 52.388C251.107 52.388 251.531 52.476 251.899 52.652C252.275 52.82 252.591 53.052 252.847 53.348C253.111 53.636 253.311 53.968 253.447 54.344C253.591 54.712 253.663 55.096 253.663 55.496C253.663 55.584 253.655 55.684 253.639 55.796C253.631 55.9 253.619 56 253.603 56.096H248.299V55.136H252.955L252.427 55.568C252.499 55.152 252.459 54.78 252.307 54.452C252.155 54.124 251.931 53.864 251.635 53.672C251.339 53.48 251.003 53.384 250.627 53.384C250.251 53.384 249.907 53.48 249.595 53.672C249.283 53.864 249.039 54.14 248.863 54.5C248.695 54.852 248.627 55.272 248.659 55.76C248.627 56.232 248.699 56.648 248.875 57.008C249.059 57.36 249.315 57.636 249.643 57.836C249.979 58.028 250.343 58.124 250.735 58.124C251.167 58.124 251.531 58.024 251.827 57.824C252.123 57.624 252.363 57.368 252.547 57.056L253.483 57.536C253.355 57.832 253.155 58.104 252.883 58.352C252.619 58.592 252.303 58.784 251.935 58.928C251.575 59.072 251.171 59.144 250.723 59.144ZM255.31 60.668V60.128C255.558 60.064 255.746 59.94 255.874 59.756C256.002 59.572 256.074 59.32 256.09 59H255.55V57.56H256.714V58.58C256.714 59.156 256.594 59.62 256.354 59.972C256.122 60.324 255.774 60.556 255.31 60.668ZM41.548 75V69.6H40.312V68.532H41.548V68.076C41.548 67.612 41.648 67.22 41.848 66.9C42.056 66.58 42.328 66.336 42.664 66.168C43.008 66 43.388 65.916 43.804 65.916C43.892 65.916 43.988 65.924 44.092 65.94C44.204 65.948 44.296 65.96 44.368 65.976V66.972C44.304 66.956 44.228 66.948 44.14 66.948C44.052 66.94 43.984 66.936 43.936 66.936C43.568 66.936 43.264 67.024 43.024 67.2C42.792 67.376 42.676 67.668 42.676 68.076V68.532H44.212V69.6H42.676V75H41.548ZM45.5515 75V68.532H46.6435V69.72L46.5235 69.552C46.6755 69.184 46.9075 68.912 47.2195 68.736C47.5315 68.552 47.9115 68.46 48.3595 68.46H48.7555V69.516H48.1915C47.7355 69.516 47.3675 69.66 47.0875 69.948C46.8075 70.228 46.6675 70.628 46.6675 71.148V75H45.5515ZM52.7228 75.144C52.0988 75.144 51.5428 74.996 51.0548 74.7C50.5668 74.404 50.1828 74 49.9028 73.488C49.6228 72.968 49.4828 72.388 49.4828 71.748C49.4828 71.1 49.6188 70.524 49.8908 70.02C50.1708 69.516 50.5468 69.12 51.0188 68.832C51.4988 68.536 52.0348 68.388 52.6268 68.388C53.1068 68.388 53.5308 68.476 53.8988 68.652C54.2748 68.82 54.5908 69.052 54.8468 69.348C55.1108 69.636 55.3108 69.968 55.4468 70.344C55.5908 70.712 55.6628 71.096 55.6628 71.496C55.6628 71.584 55.6548 71.684 55.6388 71.796C55.6308 71.9 55.6188 72 55.6028 72.096H50.2988V71.136H54.9548L54.4268 71.568C54.4988 71.152 54.4588 70.78 54.3068 70.452C54.1548 70.124 53.9308 69.864 53.6348 69.672C53.3388 69.48 53.0028 69.384 52.6268 69.384C52.2508 69.384 51.9068 69.48 51.5948 69.672C51.2828 69.864 51.0388 70.14 50.8628 70.5C50.6948 70.852 50.6268 71.272 50.6588 71.76C50.6268 72.232 50.6988 72.648 50.8748 73.008C51.0588 73.36 51.3148 73.636 51.6428 73.836C51.9788 74.028 52.3428 74.124 52.7348 74.124C53.1668 74.124 53.5308 74.024 53.8268 73.824C54.1228 73.624 54.3628 73.368 54.5468 73.056L55.4828 73.536C55.3548 73.832 55.1548 74.104 54.8828 74.352C54.6188 74.592 54.3028 74.784 53.9348 74.928C53.5748 75.072 53.1708 75.144 52.7228 75.144ZM60.0939 75.144C59.4699 75.144 58.9139 74.996 58.4259 74.7C57.9379 74.404 57.5539 74 57.2739 73.488C56.9939 72.968 56.8539 72.388 56.8539 71.748C56.8539 71.1 56.9899 70.524 57.2619 70.02C57.5419 69.516 57.9179 69.12 58.3899 68.832C58.8699 68.536 59.4059 68.388 59.9979 68.388C60.4779 68.388 60.9019 68.476 61.2699 68.652C61.6459 68.82 61.9619 69.052 62.2179 69.348C62.4819 69.636 62.6819 69.968 62.8179 70.344C62.9619 70.712 63.0339 71.096 63.0339 71.496C63.0339 71.584 63.0259 71.684 63.0099 71.796C63.0019 71.9 62.9899 72 62.9739 72.096H57.6699V71.136H62.3259L61.7979 71.568C61.8699 71.152 61.8299 70.78 61.6779 70.452C61.5259 70.124 61.3019 69.864 61.0059 69.672C60.7099 69.48 60.3739 69.384 59.9979 69.384C59.6219 69.384 59.2779 69.48 58.9659 69.672C58.6539 69.864 58.4099 70.14 58.2339 70.5C58.0659 70.852 57.9979 71.272 58.0299 71.76C57.9979 72.232 58.0699 72.648 58.2459 73.008C58.4299 73.36 58.6859 73.636 59.0139 73.836C59.3499 74.028 59.7139 74.124 60.1059 74.124C60.5379 74.124 60.9019 74.024 61.1979 73.824C61.4939 73.624 61.7339 73.368 61.9179 73.056L62.8539 73.536C62.7259 73.832 62.5259 74.104 62.2539 74.352C61.9899 74.592 61.6739 74.784 61.3059 74.928C60.9459 75.072 60.5419 75.144 60.0939 75.144ZM69.6352 75.144C69.0112 75.144 68.4472 75 67.9432 74.712C67.4392 74.416 67.0392 74.012 66.7432 73.5C66.4472 72.988 66.2992 72.408 66.2992 71.76C66.2992 71.112 66.4432 70.536 66.7312 70.032C67.0272 69.528 67.4272 69.128 67.9312 68.832C68.4352 68.536 69.0032 68.388 69.6352 68.388C70.2592 68.388 70.8232 68.536 71.3272 68.832C71.8312 69.12 72.2272 69.516 72.5152 70.02C72.8112 70.524 72.9592 71.104 72.9592 71.76C72.9592 72.416 72.8072 73 72.5032 73.512C72.1992 74.016 71.7952 74.416 71.2912 74.712C70.7952 75 70.2432 75.144 69.6352 75.144ZM69.6352 74.064C70.0352 74.064 70.3952 73.964 70.7152 73.764C71.0432 73.564 71.2992 73.288 71.4832 72.936C71.6752 72.584 71.7712 72.192 71.7712 71.76C71.7712 71.32 71.6752 70.932 71.4832 70.596C71.2992 70.252 71.0432 69.98 70.7152 69.78C70.3952 69.572 70.0352 69.468 69.6352 69.468C69.2272 69.468 68.8592 69.572 68.5312 69.78C68.2112 69.98 67.9552 70.252 67.7632 70.596C67.5712 70.932 67.4752 71.32 67.4752 71.76C67.4752 72.192 67.5712 72.584 67.7632 72.936C67.9552 73.288 68.2112 73.564 68.5312 73.764C68.8592 73.964 69.2272 74.064 69.6352 74.064ZM74.8996 75V69.6H73.6636V68.532H74.8996V68.076C74.8996 67.612 74.9996 67.22 75.1996 66.9C75.4076 66.58 75.6796 66.336 76.0156 66.168C76.3596 66 76.7396 65.916 77.1556 65.916C77.2436 65.916 77.3396 65.924 77.4436 65.94C77.5556 65.948 77.6476 65.96 77.7196 65.976V66.972C77.6556 66.956 77.5796 66.948 77.4916 66.948C77.4036 66.94 77.3356 66.936 77.2876 66.936C76.9196 66.936 76.6156 67.024 76.3756 67.2C76.1436 67.376 76.0276 67.668 76.0276 68.076V68.532H77.5636V69.6H76.0276V75H74.8996ZM84.0593 75.144C83.4273 75.144 82.8633 74.996 82.3673 74.7C81.8793 74.404 81.4953 74 81.2153 73.488C80.9353 72.976 80.7953 72.4 80.7953 71.76C80.7953 71.112 80.9353 70.536 81.2153 70.032C81.4953 69.528 81.8793 69.128 82.3673 68.832C82.8633 68.536 83.4273 68.388 84.0593 68.388C84.4833 68.388 84.8793 68.464 85.2473 68.616C85.6153 68.768 85.9393 68.972 86.2193 69.228C86.4993 69.484 86.7033 69.784 86.8313 70.128L85.8353 70.608C85.6833 70.272 85.4513 70 85.1393 69.792C84.8273 69.576 84.4673 69.468 84.0593 69.468C83.6673 69.468 83.3113 69.568 82.9913 69.768C82.6793 69.968 82.4313 70.24 82.2473 70.584C82.0633 70.928 81.9713 71.324 81.9713 71.772C81.9713 72.204 82.0633 72.596 82.2473 72.948C82.4313 73.292 82.6793 73.564 82.9913 73.764C83.3113 73.964 83.6673 74.064 84.0593 74.064C84.4673 74.064 84.8273 73.96 85.1393 73.752C85.4513 73.536 85.6833 73.252 85.8353 72.9L86.8313 73.404C86.7033 73.74 86.4993 74.04 86.2193 74.304C85.9393 74.56 85.6153 74.764 85.2473 74.916C84.8793 75.068 84.4833 75.144 84.0593 75.144ZM88.2898 75V65.916H89.4058V69.792L89.2018 69.684C89.3618 69.276 89.6178 68.96 89.9698 68.736C90.3298 68.504 90.7498 68.388 91.2298 68.388C91.6938 68.388 92.1058 68.492 92.4658 68.7C92.8338 68.908 93.1218 69.196 93.3298 69.564C93.5458 69.932 93.6538 70.348 93.6538 70.812V75H92.5258V71.172C92.5258 70.812 92.4578 70.508 92.3218 70.26C92.1938 70.012 92.0138 69.82 91.7818 69.684C91.5498 69.54 91.2818 69.468 90.9778 69.468C90.6818 69.468 90.4138 69.54 90.1738 69.684C89.9338 69.82 89.7458 70.016 89.6098 70.272C89.4738 70.52 89.4058 70.82 89.4058 71.172V75H88.2898ZM97.1467 75.144C96.7227 75.144 96.3467 75.068 96.0187 74.916C95.6987 74.756 95.4467 74.54 95.2627 74.268C95.0787 73.988 94.9867 73.668 94.9867 73.308C94.9867 72.964 95.0587 72.656 95.2027 72.384C95.3547 72.104 95.5867 71.868 95.8987 71.676C96.2187 71.484 96.6187 71.348 97.0987 71.268L99.4987 70.872V71.808L97.3507 72.168C96.9347 72.24 96.6307 72.372 96.4387 72.564C96.2547 72.756 96.1627 72.992 96.1627 73.272C96.1627 73.536 96.2667 73.756 96.4747 73.932C96.6907 74.108 96.9587 74.196 97.2787 74.196C97.6867 74.196 98.0387 74.112 98.3347 73.944C98.6387 73.768 98.8747 73.532 99.0427 73.236C99.2187 72.94 99.3067 72.612 99.3067 72.252V70.608C99.3067 70.256 99.1747 69.972 98.9107 69.756C98.6547 69.532 98.3147 69.42 97.8907 69.42C97.5227 69.42 97.1947 69.516 96.9067 69.708C96.6267 69.892 96.4187 70.14 96.2827 70.452L95.3107 69.948C95.4307 69.652 95.6227 69.388 95.8867 69.156C96.1507 68.916 96.4587 68.728 96.8107 68.592C97.1627 68.456 97.5307 68.388 97.9147 68.388C98.4107 68.388 98.8467 68.484 99.2227 68.676C99.5987 68.86 99.8907 69.12 100.099 69.456C100.315 69.784 100.423 70.168 100.423 70.608V75H99.3307V73.776L99.5347 73.848C99.3987 74.104 99.2147 74.328 98.9827 74.52C98.7507 74.712 98.4787 74.864 98.1667 74.976C97.8547 75.088 97.5147 75.144 97.1467 75.144ZM102.153 75V68.532H103.245V69.72L103.125 69.552C103.277 69.184 103.509 68.912 103.821 68.736C104.133 68.552 104.513 68.46 104.961 68.46H105.357V69.516H104.793C104.337 69.516 103.969 69.66 103.689 69.948C103.409 70.228 103.269 70.628 103.269 71.148V75H102.153ZM109.432 77.64C108.976 77.64 108.552 77.568 108.16 77.424C107.776 77.28 107.444 77.08 107.164 76.824C106.892 76.576 106.684 76.284 106.54 75.948L107.584 75.468C107.696 75.772 107.908 76.028 108.22 76.236C108.54 76.452 108.94 76.56 109.42 76.56C109.788 76.56 110.12 76.488 110.416 76.344C110.72 76.208 110.96 76 111.136 75.72C111.312 75.448 111.4 75.116 111.4 74.724V73.272L111.604 73.488C111.38 73.928 111.056 74.264 110.632 74.496C110.216 74.728 109.756 74.844 109.252 74.844C108.644 74.844 108.1 74.704 107.62 74.424C107.14 74.136 106.764 73.748 106.492 73.26C106.22 72.764 106.084 72.216 106.084 71.616C106.084 71.008 106.22 70.46 106.492 69.972C106.764 69.484 107.136 69.1 107.608 68.82C108.088 68.532 108.632 68.388 109.24 68.388C109.744 68.388 110.2 68.504 110.608 68.736C111.024 68.96 111.356 69.272 111.604 69.672L111.436 69.972V68.532H112.528V74.724C112.528 75.284 112.396 75.784 112.132 76.224C111.868 76.664 111.5 77.008 111.028 77.256C110.564 77.512 110.032 77.64 109.432 77.64ZM109.348 73.764C109.732 73.764 110.076 73.668 110.38 73.476C110.692 73.284 110.94 73.028 111.124 72.708C111.308 72.38 111.4 72.016 111.4 71.616C111.4 71.224 111.308 70.864 111.124 70.536C110.94 70.208 110.692 69.948 110.38 69.756C110.076 69.564 109.732 69.468 109.348 69.468C108.956 69.468 108.6 69.564 108.28 69.756C107.96 69.948 107.708 70.208 107.524 70.536C107.348 70.856 107.26 71.216 107.26 71.616C107.26 72.016 107.348 72.38 107.524 72.708C107.708 73.028 107.956 73.284 108.268 73.476C108.588 73.668 108.948 73.764 109.348 73.764ZM117.235 75.144C116.611 75.144 116.055 74.996 115.567 74.7C115.079 74.404 114.695 74 114.415 73.488C114.135 72.968 113.995 72.388 113.995 71.748C113.995 71.1 114.131 70.524 114.403 70.02C114.683 69.516 115.059 69.12 115.531 68.832C116.011 68.536 116.547 68.388 117.139 68.388C117.619 68.388 118.043 68.476 118.411 68.652C118.787 68.82 119.103 69.052 119.359 69.348C119.623 69.636 119.823 69.968 119.959 70.344C120.103 70.712 120.175 71.096 120.175 71.496C120.175 71.584 120.167 71.684 120.151 71.796C120.143 71.9 120.131 72 120.115 72.096H114.811V71.136H119.467L118.939 71.568C119.011 71.152 118.971 70.78 118.819 70.452C118.667 70.124 118.443 69.864 118.147 69.672C117.851 69.48 117.515 69.384 117.139 69.384C116.763 69.384 116.419 69.48 116.107 69.672C115.795 69.864 115.551 70.14 115.375 70.5C115.207 70.852 115.139 71.272 115.171 71.76C115.139 72.232 115.211 72.648 115.387 73.008C115.571 73.36 115.827 73.636 116.155 73.836C116.491 74.028 116.855 74.124 117.247 74.124C117.679 74.124 118.043 74.024 118.339 73.824C118.635 73.624 118.875 73.368 119.059 73.056L119.995 73.536C119.867 73.832 119.667 74.104 119.395 74.352C119.131 74.592 118.815 74.784 118.447 74.928C118.087 75.072 117.683 75.144 117.235 75.144ZM122.122 72.384L122.05 66.06H123.226L123.142 72.384H122.122ZM122.05 75V73.56H123.226V75H122.05Z" fill="#CCB676"/>
</g>
<mask id="mask0_16589_54985" style="mask-type:alpha" maskUnits="userSpaceOnUse" x="16" y="0" width="328" height="90">
<rect x="16" width="328" height="90" rx="20" fill="#D9D9D9"/>
</mask>
<g mask="url(#mask0_16589_54985)">
<g opacity="0.06">
<g filter="url(#filter2_d_16589_54985)">
<path d="M254.306 60.3384C261.944 53.2754 286.21 57.4452 300.403 69.0245C308.566 75.6835 314.606 88.7286 314.426 102.852C314.372 107.096 313.727 113.8 311.283 114.918C307.395 116.696 302.142 116.175 292.922 114.115C264.427 107.746 246.668 67.4014 254.306 60.3384Z" fill="url(#paint1_linear_16589_54985)" shape-rendering="crispEdges"/>
<path d="M253.944 59.9467C255.97 58.073 259.047 56.9856 262.672 56.5578C266.308 56.1287 270.556 56.3554 274.992 57.1658C283.859 58.7859 293.562 62.7547 300.74 68.6111C309.048 75.3886 315.141 88.5992 314.959 102.858C314.932 104.997 314.756 107.771 314.274 110.163C314.033 111.357 313.71 112.48 313.279 113.387C312.854 114.281 312.285 115.046 311.505 115.403C309.455 116.341 307.075 116.657 304.072 116.488C301.075 116.32 297.421 115.667 292.806 114.635C278.357 111.406 266.691 99.5889 259.607 87.7611C256.06 81.8399 253.639 75.8808 252.588 70.936C252.063 68.4647 251.875 66.225 252.073 64.3596C252.27 62.5007 252.857 60.9516 253.944 59.9467Z" stroke="url(#paint2_linear_16589_54985)" stroke-width="1.0669" shape-rendering="crispEdges"/>
</g>
<g style="mix-blend-mode:color-dodge" filter="url(#filter3_f_16589_54985)">
<path d="M254.306 60.3384C261.944 53.2754 286.21 57.4452 300.403 69.0245C308.566 75.6835 314.606 88.7286 314.426 102.852C314.372 107.096 313.727 113.8 311.283 114.918C307.395 116.696 302.142 116.175 292.922 114.115C264.427 107.746 246.668 67.4014 254.306 60.3384Z" fill="url(#paint3_linear_16589_54985)"/>
</g>
</g>
<g opacity="0.2">
<g filter="url(#filter4_d_16589_54985)">
<path d="M260.306 39.5845C267.944 32.5215 292.21 36.6913 306.403 48.2706C314.566 54.9296 320.606 67.9746 320.426 82.0978C320.372 86.3418 319.727 93.0461 317.283 94.1641C313.395 95.9422 308.142 95.4213 298.922 93.3607C270.427 86.9924 252.668 46.6475 260.306 39.5845Z" fill="url(#paint4_linear_16589_54985)" shape-rendering="crispEdges"/>
<path d="M259.944 39.1928C261.97 37.3191 265.047 36.2317 268.672 35.8039C272.308 35.3748 276.556 35.6015 280.992 36.4119C289.859 38.032 299.562 42.0008 306.74 47.8572C315.048 54.6347 321.141 67.8453 320.959 82.1046C320.932 84.2434 320.756 87.017 320.274 89.4087C320.033 90.6032 319.71 91.7258 319.279 92.6329C318.854 93.5271 318.285 94.2922 317.505 94.6492C315.455 95.5866 313.075 95.9029 310.072 95.7345C307.075 95.5664 303.421 94.9128 298.806 93.8813C284.357 90.6522 272.691 78.835 265.607 67.0072C262.06 61.086 259.639 55.1269 258.588 50.1821C258.063 47.7108 257.875 45.4711 258.073 43.6056C258.27 41.7467 258.857 40.1977 259.944 39.1928Z" stroke="url(#paint5_linear_16589_54985)" stroke-width="1.0669" shape-rendering="crispEdges"/>
</g>
<g style="mix-blend-mode:color-dodge" filter="url(#filter5_f_16589_54985)">
<path d="M260.306 39.5845C267.944 32.5215 292.21 36.6913 306.403 48.2706C314.566 54.9296 320.606 67.9746 320.426 82.0978C320.372 86.3418 319.727 93.0461 317.283 94.1641C313.395 95.9422 308.142 95.4213 298.922 93.3607C270.427 86.9924 252.668 46.6475 260.306 39.5845Z" fill="url(#paint6_linear_16589_54985)"/>
</g>
</g>
<g opacity="0.5" filter="url(#filter6_b_16589_54985)">
<g filter="url(#filter7_d_16589_54985)">
<path d="M268.477 21.7173C276.115 14.6543 300.381 18.8242 314.574 30.4034C322.736 37.0624 328.777 50.1075 328.597 64.2306C328.543 68.4746 327.898 75.1789 325.454 76.2969C321.566 78.075 316.313 77.5541 307.093 75.4935C278.598 69.1252 260.839 28.7803 268.477 21.7173Z" fill="url(#paint7_linear_16589_54985)" shape-rendering="crispEdges"/>
<path d="M268.115 21.3256C270.141 19.4519 273.218 18.3646 276.843 17.9367C280.479 17.5076 284.727 17.7343 289.163 18.5447C298.03 20.1648 307.733 24.1336 314.911 29.99C323.219 36.7675 329.312 49.9781 329.13 64.2374C329.103 66.3762 328.927 69.1499 328.444 71.5416C328.203 72.736 327.881 73.8586 327.45 74.7657C327.025 75.6599 326.456 76.425 325.675 76.782C323.626 77.7195 321.246 78.0357 318.243 77.8673C315.245 77.6992 311.592 77.0456 306.977 76.0141C292.528 72.785 280.862 60.9678 273.777 49.14C270.231 43.2188 267.81 37.2597 266.759 32.3149C266.234 29.8436 266.046 27.6039 266.244 25.7385C266.441 23.8796 267.028 22.3305 268.115 21.3256Z" stroke="url(#paint8_linear_16589_54985)" stroke-width="1.0669" shape-rendering="crispEdges"/>
</g>
<g style="mix-blend-mode:color-dodge" filter="url(#filter8_f_16589_54985)">
<path d="M268.477 21.7173C276.115 14.6543 300.381 18.8242 314.574 30.4034C322.736 37.0624 328.777 50.1075 328.597 64.2306C328.543 68.4746 327.898 75.1789 325.454 76.2969C321.566 78.075 316.313 77.5541 307.093 75.4935C278.598 69.1252 260.839 28.7803 268.477 21.7173Z" fill="url(#paint9_linear_16589_54985)"/>
</g>
</g>
<g filter="url(#filter9_b_16589_54985)">
<g filter="url(#filter10_d_16589_54985)">
<path d="M280.459 5.2876C288.097 -1.7754 312.363 2.39446 326.556 13.9737C334.719 20.6327 340.759 33.6778 340.579 47.8009C340.525 52.045 339.88 58.7493 337.436 59.8672C333.548 61.6453 328.295 61.1245 319.075 59.0638C290.581 52.6955 272.821 12.3506 280.459 5.2876Z" fill="url(#paint10_linear_16589_54985)" shape-rendering="crispEdges"/>
<path d="M280.097 4.89594C282.123 3.02218 285.2 1.93487 288.826 1.507C292.462 1.07791 296.71 1.30458 301.145 2.11505C310.013 3.73515 319.715 7.7039 326.894 13.5604C335.201 20.3379 341.294 33.5484 341.113 47.8077C341.085 49.9465 340.91 52.7202 340.427 55.1119C340.186 56.3063 339.864 57.4289 339.433 58.3361C339.007 59.2302 338.438 59.9953 337.658 60.3523C335.608 61.2898 333.228 61.606 330.225 61.4376C327.228 61.2695 323.574 60.6159 318.959 59.5844C304.511 56.3553 292.844 44.5381 285.76 32.7103C282.213 26.7891 279.793 20.83 278.742 15.8852C278.217 13.4139 278.029 11.1742 278.226 9.30877C278.423 7.44987 279.01 5.90086 280.097 4.89594Z" stroke="url(#paint11_linear_16589_54985)" stroke-width="1.0669" shape-rendering="crispEdges"/>
</g>
<g style="mix-blend-mode:color-dodge" filter="url(#filter11_f_16589_54985)">
<path d="M280.459 5.2876C288.097 -1.7754 312.363 2.39446 326.556 13.9737C334.719 20.6327 340.759 33.6778 340.579 47.8009C340.525 52.045 339.88 58.7493 337.436 59.8672C333.548 61.6453 328.295 61.1245 319.075 59.0638C290.581 52.6955 272.821 12.3506 280.459 5.2876Z" fill="url(#paint12_linear_16589_54985)"/>
</g>
</g>
</g>
<defs>
<filter id="filter0_f_16589_54985" x="58.0496" y="-66.3352" width="446.871" height="446.871" filterUnits="userSpaceOnUse" color-interpolation-filters="sRGB">
<feFlood flood-opacity="0" result="BackgroundImageFix"/>
<feBlend mode="normal" in="SourceGraphic" in2="BackgroundImageFix" result="shape"/>
<feGaussianBlur stdDeviation="69.6051" result="effect1_foregroundBlur_16589_54985"/>
</filter>
<filter id="filter1_f_16589_54985" x="131.452" y="-121.726" width="422.507" height="422.508" filterUnits="userSpaceOnUse" color-interpolation-filters="sRGB">
<feFlood flood-opacity="0" result="BackgroundImageFix"/>
<feBlend mode="normal" in="SourceGraphic" in2="BackgroundImageFix" result="shape"/>
<feGaussianBlur stdDeviation="69.6051" result="effect1_foregroundBlur_16589_54985"/>
</filter>
<filter id="filter2_d_16589_54985" x="247.088" y="55.8115" width="72.7847" height="70.0044" filterUnits="userSpaceOnUse" color-interpolation-filters="sRGB">
<feFlood flood-opacity="0" result="BackgroundImageFix"/>
<feColorMatrix in="SourceAlpha" type="matrix" values="0 0 0 0 0 0 0 0 0 0 0 0 0 0 0 0 0 0 127 0" result="hardAlpha"/>
<feOffset dy="4.37527"/>
<feGaussianBlur stdDeviation="2.18763"/>
<feComposite in2="hardAlpha" operator="out"/>
<feColorMatrix type="matrix" values="0 0 0 0 0 0 0 0 0 0 0 0 0 0 0 0 0 0 0.25 0"/>
<feBlend mode="normal" in2="BackgroundImageFix" result="effect1_dropShadow_16589_54985"/>
<feBlend mode="normal" in="SourceGraphic" in2="effect1_dropShadow_16589_54985" result="shape"/>
</filter>
<filter id="filter3_f_16589_54985" x="248.154" y="52.5027" width="70.6509" height="67.8707" filterUnits="userSpaceOnUse" color-interpolation-filters="sRGB">
<feFlood flood-opacity="0" result="BackgroundImageFix"/>
<feBlend mode="normal" in="SourceGraphic" in2="BackgroundImageFix" result="shape"/>
<feGaussianBlur stdDeviation="2.18763" result="effect1_foregroundBlur_16589_54985"/>
</filter>
<filter id="filter4_d_16589_54985" x="253.088" y="35.0576" width="72.7847" height="70.0044" filterUnits="userSpaceOnUse" color-interpolation-filters="sRGB">
<feFlood flood-opacity="0" result="BackgroundImageFix"/>
<feColorMatrix in="SourceAlpha" type="matrix" values="0 0 0 0 0 0 0 0 0 0 0 0 0 0 0 0 0 0 127 0" result="hardAlpha"/>
<feOffset dy="4.37527"/>
<feGaussianBlur stdDeviation="2.18763"/>
<feComposite in2="hardAlpha" operator="out"/>
<feColorMatrix type="matrix" values="0 0 0 0 0 0 0 0 0 0 0 0 0 0 0 0 0 0 0.25 0"/>
<feBlend mode="normal" in2="BackgroundImageFix" result="effect1_dropShadow_16589_54985"/>
<feBlend mode="normal" in="SourceGraphic" in2="effect1_dropShadow_16589_54985" result="shape"/>
</filter>
<filter id="filter5_f_16589_54985" x="254.154" y="31.7488" width="70.6509" height="67.8707" filterUnits="userSpaceOnUse" color-interpolation-filters="sRGB">
<feFlood flood-opacity="0" result="BackgroundImageFix"/>
<feBlend mode="normal" in="SourceGraphic" in2="BackgroundImageFix" result="shape"/>
<feGaussianBlur stdDeviation="2.18763" result="effect1_foregroundBlur_16589_54985"/>
</filter>
<filter id="filter6_b_16589_54985" x="264.634" y="16.1904" width="66.0342" height="63.2539" filterUnits="userSpaceOnUse" color-interpolation-filters="sRGB">
<feFlood flood-opacity="0" result="BackgroundImageFix"/>
<feGaussianBlur in="BackgroundImageFix" stdDeviation="0.5"/>
<feComposite in2="SourceAlpha" operator="in" result="effect1_backgroundBlur_16589_54985"/>
<feBlend mode="normal" in="SourceGraphic" in2="effect1_backgroundBlur_16589_54985" result="shape"/>
</filter>
<filter id="filter7_d_16589_54985" x="261.259" y="17.1904" width="72.7847" height="70.0044" filterUnits="userSpaceOnUse" color-interpolation-filters="sRGB">
<feFlood flood-opacity="0" result="BackgroundImageFix"/>
<feColorMatrix in="SourceAlpha" type="matrix" values="0 0 0 0 0 0 0 0 0 0 0 0 0 0 0 0 0 0 127 0" result="hardAlpha"/>
<feOffset dy="4.37527"/>
<feGaussianBlur stdDeviation="2.18763"/>
<feComposite in2="hardAlpha" operator="out"/>
<feColorMatrix type="matrix" values="0 0 0 0 0 0 0 0 0 0 0 0 0 0 0 0 0 0 0.25 0"/>
<feBlend mode="normal" in2="BackgroundImageFix" result="effect1_dropShadow_16589_54985"/>
<feBlend mode="normal" in="SourceGraphic" in2="effect1_dropShadow_16589_54985" result="shape"/>
</filter>
<filter id="filter8_f_16589_54985" x="262.325" y="13.8816" width="70.6509" height="67.8707" filterUnits="userSpaceOnUse" color-interpolation-filters="sRGB">
<feFlood flood-opacity="0" result="BackgroundImageFix"/>
<feBlend mode="normal" in="SourceGraphic" in2="BackgroundImageFix" result="shape"/>
<feGaussianBlur stdDeviation="2.18763" result="effect1_foregroundBlur_16589_54985"/>
</filter>
<filter id="filter9_b_16589_54985" x="275.616" y="-1.23926" width="68.0342" height="65.2539" filterUnits="userSpaceOnUse" color-interpolation-filters="sRGB">
<feFlood flood-opacity="0" result="BackgroundImageFix"/>
<feGaussianBlur in="BackgroundImageFix" stdDeviation="1"/>
<feComposite in2="SourceAlpha" operator="in" result="effect1_backgroundBlur_16589_54985"/>
<feBlend mode="normal" in="SourceGraphic" in2="effect1_backgroundBlur_16589_54985" result="shape"/>
</filter>
<filter id="filter10_d_16589_54985" x="273.241" y="0.760742" width="72.7847" height="70.0044" filterUnits="userSpaceOnUse" color-interpolation-filters="sRGB">
<feFlood flood-opacity="0" result="BackgroundImageFix"/>
<feColorMatrix in="SourceAlpha" type="matrix" values="0 0 0 0 0 0 0 0 0 0 0 0 0 0 0 0 0 0 127 0" result="hardAlpha"/>
<feOffset dy="4.37527"/>
<feGaussianBlur stdDeviation="2.18763"/>
<feComposite in2="hardAlpha" operator="out"/>
<feColorMatrix type="matrix" values="0 0 0 0 0 0 0 0 0 0 0 0 0 0 0 0 0 0 0.25 0"/>
<feBlend mode="normal" in2="BackgroundImageFix" result="effect1_dropShadow_16589_54985"/>
<feBlend mode="normal" in="SourceGraphic" in2="effect1_dropShadow_16589_54985" result="shape"/>
</filter>
<filter id="filter11_f_16589_54985" x="274.307" y="-2.54812" width="70.6509" height="67.8707" filterUnits="userSpaceOnUse" color-interpolation-filters="sRGB">
<feFlood flood-opacity="0" result="BackgroundImageFix"/>
<feBlend mode="normal" in="SourceGraphic" in2="BackgroundImageFix" result="shape"/>
<feGaussianBlur stdDeviation="2.18763" result="effect1_foregroundBlur_16589_54985"/>
</filter>
<linearGradient id="paint0_linear_16589_54985" x1="336.5" y1="84.6667" x2="-71.244" y2="-47.1027" gradientUnits="userSpaceOnUse">
<stop stop-color="#271933"/>
<stop offset="1" stop-color="#442B5A"/>
</linearGradient>
<linearGradient id="paint1_linear_16589_54985" x1="311.838" y1="121.173" x2="272.87" y2="70.7794" gradientUnits="userSpaceOnUse">
<stop stop-color="white" stop-opacity="0.4"/>
<stop offset="1" stop-color="white" stop-opacity="0.2"/>
</linearGradient>
<linearGradient id="paint2_linear_16589_54985" x1="261.113" y1="107.827" x2="303.796" y2="76.4999" gradientUnits="userSpaceOnUse">
<stop stop-color="#F4F4F4"/>
<stop offset="1" stop-color="#F4F4F4" stop-opacity="0"/>
</linearGradient>
<linearGradient id="paint3_linear_16589_54985" x1="334.277" y1="100.318" x2="274.354" y2="99.8094" gradientUnits="userSpaceOnUse">
<stop stop-color="#083DFA"/>
<stop offset="1" stop-color="#06E2FF" stop-opacity="0"/>
</linearGradient>
<linearGradient id="paint4_linear_16589_54985" x1="317.838" y1="100.42" x2="278.87" y2="50.0255" gradientUnits="userSpaceOnUse">
<stop stop-color="white" stop-opacity="0.4"/>
<stop offset="1" stop-color="white" stop-opacity="0.2"/>
</linearGradient>
<linearGradient id="paint5_linear_16589_54985" x1="267.113" y1="87.0733" x2="309.796" y2="55.746" gradientUnits="userSpaceOnUse">
<stop stop-color="#F4F4F4"/>
<stop offset="1" stop-color="#F4F4F4" stop-opacity="0"/>
</linearGradient>
<linearGradient id="paint6_linear_16589_54985" x1="340.277" y1="79.5644" x2="280.354" y2="79.0555" gradientUnits="userSpaceOnUse">
<stop stop-color="#083DFA"/>
<stop offset="1" stop-color="#06E2FF" stop-opacity="0"/>
</linearGradient>
<linearGradient id="paint7_linear_16589_54985" x1="326.008" y1="82.5523" x2="287.041" y2="32.1583" gradientUnits="userSpaceOnUse">
<stop stop-color="white" stop-opacity="0.4"/>
<stop offset="1" stop-color="white" stop-opacity="0.2"/>
</linearGradient>
<linearGradient id="paint8_linear_16589_54985" x1="275.284" y1="69.2061" x2="317.967" y2="37.8788" gradientUnits="userSpaceOnUse">
<stop stop-color="#F4F4F4"/>
<stop offset="1" stop-color="#F4F4F4" stop-opacity="0"/>
</linearGradient>
<linearGradient id="paint9_linear_16589_54985" x1="348.448" y1="61.6972" x2="288.525" y2="61.1883" gradientUnits="userSpaceOnUse">
<stop stop-color="#083DFA"/>
<stop offset="1" stop-color="#06E2FF" stop-opacity="0"/>
</linearGradient>
<linearGradient id="paint10_linear_16589_54985" x1="337.991" y1="66.1227" x2="299.024" y2="15.7286" gradientUnits="userSpaceOnUse">
<stop stop-color="white" stop-opacity="0.4"/>
<stop offset="1" stop-color="white" stop-opacity="0.2"/>
</linearGradient>
<linearGradient id="paint11_linear_16589_54985" x1="287.267" y1="52.7764" x2="329.95" y2="21.4491" gradientUnits="userSpaceOnUse">
<stop stop-color="#F4F4F4"/>
<stop offset="1" stop-color="#F4F4F4" stop-opacity="0"/>
</linearGradient>
<linearGradient id="paint12_linear_16589_54985" x1="360.43" y1="45.2675" x2="300.507" y2="44.7586" gradientUnits="userSpaceOnUse">
<stop stop-color="#083DFA"/>
<stop offset="1" stop-color="#06E2FF" stop-opacity="0"/>
</linearGradient>
<clipPath id="clip0_16589_54985">
<rect x="16" y="10" width="328" height="80" rx="20" fill="white"/>
</clipPath>
</defs>
</svg>
