<svg width="36" height="36" viewBox="0 0 36 36" fill="none" xmlns="http://www.w3.org/2000/svg">
<circle cx="18" cy="18" r="18" fill="#333368"/>
<path d="M16.3667 19.9833C16.3667 21.4653 15.1653 22.6667 13.6833 22.6667C12.2014 22.6667 11 21.4653 11 19.9833M16.3667 19.9833C16.3667 18.5014 15.1653 17.3 13.6833 17.3C12.2014 17.3 11 18.5014 11 19.9833M16.3667 19.9833H19.9M11 19.9833V18.0667C11 16.9167 11.3833 14.7667 13.3 14M25.2667 19.9833C25.2667 21.4653 24.0653 22.6667 22.5833 22.6667C21.1014 22.6667 19.9 21.4653 19.9 19.9833M25.2667 19.9833C25.2667 18.5014 24.0653 17.3 22.5833 17.3C21.1014 17.3 19.9 18.5014 19.9 19.9833M25.2667 19.9833V18.0667C25.2667 16.9167 24.8833 14.7667 22.9667 14" stroke="white" stroke-width="1.5" stroke-linejoin="round"/>
</svg>
