<svg width="16" height="16" viewBox="0 0 16 16" fill="none" xmlns="http://www.w3.org/2000/svg">
<g id="home-02">
<path id="Vector 1257" d="M1.59999 5.13025L2.40157 2.5251C2.53378 2.09544 2.93075 1.80225 3.38029 1.80225H12.6197C13.0692 1.80225 13.4662 2.09544 13.5984 2.5251L14.4 5.13025M1.59999 5.13025H14.4M1.59999 5.13025C1.59999 6.30845 2.55506 7.26358 3.73326 7.26358C4.91147 7.26358 5.86662 6.30845 5.86662 5.13025C5.86662 6.30845 6.82174 7.26358 7.99995 7.26358C9.17816 7.26358 10.1333 6.30845 10.1333 5.13025C10.1333 6.30845 11.0884 7.26358 12.2666 7.26358C13.4448 7.26358 14.4 6.30845 14.4 5.13025M2.11199 6.51684V13.1728C2.11199 13.7384 2.57045 14.1968 3.13599 14.1968H5.95199M5.95199 14.1968H10.048M5.95199 14.1968V10.3888C5.95199 9.8233 6.41045 9.36484 6.97599 9.36484H9.02399C9.58953 9.36484 10.048 9.8233 10.048 10.3888V14.1968M10.048 14.1968H12.864C13.4295 14.1968 13.888 13.7384 13.888 13.1728V6.51684" stroke="#333368" style="stroke:#333368;stroke:color(display-p3 0.2000 0.2000 0.4078);stroke-opacity:1;"/>
</g>
</svg>
